<?xml version="1.0" encoding="UTF-8"?>
<svg width="18px" height="14px" viewBox="0 0 18 14" version="1.1" xmlns="http://www.w3.org/2000/svg" xmlns:xlink="http://www.w3.org/1999/xlink">
    <title>成都市</title>
    <g id="页面-1" stroke="none" stroke-width="1" fill="none" fill-rule="evenodd">
        <g id="图标" transform="translate(-25.000000, -98.000000)" fill="#FFFFFF" fill-rule="nonzero">
            <g id="成都市" transform="translate(25.000000, 98.000000)">
                <path d="M8.76657059,11.2 L8.9740634,11.2 L8.9221902,11.3473684 L9.0778098,11.5929824 L9.1815562,11.5929824 L9.28530261,11.7403509 L9.28530261,11.8877193 L9.49279538,12.1824561 L9.80403459,12.0842105 L9.80403459,12.1824561 L10.1152738,12.1824561 L10.167147,12.2807017 L10.5302594,12.4280702 L10.6340058,12.5754386 L10.7377522,12.5754386 L10.945245,12.3789474 L10.945245,12.1824561 L11.3083574,11.4947368 L11.463977,11.6421053 L11.7233429,11.6421053 L11.7233429,12.0350877 L11.8270893,12.1333333 L11.7233429,12.2807017 L12.0345821,12.4280702 L12.0864553,12.6245614 L12.1902017,12.6245614 L12.3458213,12.7719298 L12.8645533,12.9192982 L12.9682997,13.0175438 L12.8645533,13.0175438 L12.9164265,13.1157895 L13.1239193,13.2140351 L13.2276657,13.6070175 L13.4351585,13.6561403 L13.4351585,13.9017544 L13.5907781,14 L13.6426513,13.8526316 L13.7982709,13.8526316 L13.6426513,13.8035088 L13.8501441,13.6561403 L13.7463977,13.5578947 L13.7982709,13.4596491 L14.0057637,13.2631579 L14.1613833,13.2631579 L14.1613833,12.968421 L14.2651297,12.9192982 L14.3170029,13.0175438 L14.4207493,13.0175438 L14.5244957,12.9192982 L14.8357349,12.9192982 L15.1988473,12.6245614 L15.1469741,12.3789474 L15.7175793,12.4280702 L15.5619597,12.1333333 L15.6657061,11.9368421 L15.7175793,12.0350877 L16.0288184,12.0842105 L16.1844381,11.7894737 L16.3400577,11.7403509 L16.3919309,11.8877193 L16.8587896,11.7894737 L17.0662824,12.0350877 L17.1700288,11.8385965 L17.221902,11.8877193 L17.3256484,11.8385965 L17.2737752,11.7894737 L17.5331412,11.7403509 L17.5331412,11.3964912 L17.3775216,11.2 L17.4293948,11.1508772 L17.5331412,11.3473684 L17.6887608,11.1508772 L17.8443804,11.2 L17.8443804,11.1017544 L18,10.954386 L17.8443804,10.8561403 L17.7925072,10.9052631 L17.8443804,10.5614035 L17.740634,10.5614035 L17.740634,9.8245614 L17.9481268,9.33333334 L17.9481268,9.13684211 L17.8443804,9.18596492 L17.5850144,8.84210525 L17.2737752,8.94035087 L17.221902,8.89122806 L17.5331412,8.25263157 L17.3256484,8.25263157 L17.2737752,8.00701756 L16.962536,7.7122807 L17.0144092,7.46666666 L16.5994236,7.36842104 L16.4438041,6.82807017 L16.2881845,6.92631579 L16.2363113,6.87719298 L16.2881845,6.82807017 L16.1325649,6.48421053 L16.1844381,6.38596492 L15.6138329,6.23859649 L15.4582133,6.09122806 L15.3025937,6.14035087 L15.1469741,5.94385966 L14.9394813,5.94385966 L14.8357349,5.84561405 L14.4207493,5.74736843 L14.5763689,5.40350876 L14.3688761,5.20701756 L13.8501441,5.05964913 L13.7463977,5.15789475 L13.5389049,5.10877194 L13.3314121,5.20701756 L13.2795389,5.10877194 L13.1757925,5.30526318 L13.0201729,5.15789475 L12.9164265,5.45263157 L12.5533141,5.64912281 L12.3976945,5.55087719 L12.0345821,5.6 L11.9308357,5.50175438 L11.8789625,5.6 L11.6714697,5.64912281 L11.4121038,5.45263157 L10.9971182,5.45263157 L10.8933717,5.35438595 L11.1527378,4.86315789 L11.0489914,4.56842107 L10.8933717,4.42105264 L10.685879,4.32280702 L10.6340058,4.37192983 L10.685879,4.2245614 L10.3227666,4.12631579 L10.1152738,3.73333334 L9.75216139,3.43859649 L9.75216139,3.04561405 L9.59654178,2.94736843 L9.64841498,2.84912281 L9.59654178,2.70175438 L9.49279538,2.65263157 L9.54466858,2.60350876 L9.23342941,2.35789475 L9.0259366,2.35789475 L9.0778098,2.30877194 L8.870317,2.1122807 L8.870317,1.67017545 L8.71469739,1.62105264 L8.50720462,1.3754386 L8.50720462,1.12982458 L8.870317,0.835087725 L8.50720462,0.245614046 L8.55907782,0.196491237 L8.19596541,0.147368428 L7.93659941,0.245614046 L7.78097984,0.0982456185 L7.78097984,0 L7.41786743,0 L7.10662825,0.196491237 L7.10662825,0.343859665 L6.74351584,0.442105283 L6.43227667,0.736842107 L6.43227667,0.835087725 L6.01729106,0.933333344 L5.86167145,0.933333344 L5.80979825,0.835087725 L5.65417868,0.982456153 L5.44668587,0.982456153 L5.55043228,1.47368421 L5.44668587,1.81754388 L5.55043228,1.9157895 L5.60230548,2.55438599 L5.44668587,2.70175438 L5.0317003,3.4877193 L5.08357347,3.58596492 L4.9798271,3.68421053 L4.9798271,3.92982458 L4.82420749,4.12631579 L4.9798271,4.2245614 L4.9798271,4.76491227 L4.40922188,5.20701756 L4.35734868,5.64912281 L4.25360231,5.74736843 L3.9423631,5.94385966 L3.6829971,5.94385966 L3.52737752,6.09122806 L3.42363112,6.09122806 L3.26801152,6.33684211 L2.95677231,6.48421053 L2.85302594,6.48421053 L2.80115274,6.33684211 L2.69740634,6.33684211 L2.54178673,6.18947368 L2.17867436,6.23859649 L1.97118155,6.14035087 L1.71181554,6.14035087 L1.29682997,6.68070174 L0.881844356,6.48421053 L0.726224786,6.48421053 L0.622478383,6.58245615 L0.155619571,6.68070174 L0.155619571,6.77894736 L0,6.82807017 L0,6.92631579 L0.414985577,7.41754385 L0.363112376,7.61403508 L0.726224786,7.46666666 L1.03746396,7.95789475 L1.24495677,8.00701756 L1.34870317,8.15438595 L1.29682997,8.79298244 L1.40057637,8.89122806 L1.45244957,8.84210525 L1.65994234,9.13684211 L1.55619594,9.38245612 L1.60806914,9.48070174 L1.81556195,9.48070174 L1.71181554,9.87368421 L1.24495677,10.2175438 L1.40057637,10.3157895 L1.40057637,10.4140351 L1.19308356,10.4140351 L1.19308356,11.0035088 L1.29682997,11.0526316 L0.985590759,11.4947368 L0.881844356,11.5929824 L0.829971155,11.5438596 L0.674351584,11.7403509 L0.674351584,12.1333333 L0.778097953,12.2315789 L0.881844356,12.6736842 L1.29682997,12.7719298 L1.55619594,12.722807 L1.81556195,12.3298245 L2.02305475,12.4280702 L2.17867436,12.7719298 L2.28242073,12.722807 L2.38616713,12.3789474 L2.69740634,12.1824561 L2.95677231,12.1824561 L3.06051871,12.2315789 L3.16426512,12.5263158 L3.57925073,12.5263158 L3.63112389,12.6736842 L3.47550432,12.968421 L3.57925073,13.4105263 L3.47550432,13.5087719 L3.63112389,13.6561403 L3.63112389,13.754386 L3.8386167,13.9508772 L3.9942363,13.754386 L4.09798271,13.7052631 L4.14985591,13.8035088 L4.25360231,13.6561403 L4.20172911,13.6070175 L4.30547551,13.6070175 L4.25360231,13.754386 L4.40922188,13.9508772 L4.51296828,13.8526316 L4.51296828,13.7052631 L4.35734868,13.6070175 L4.35734868,13.5087719 L4.56484148,13.6070175 L4.66858789,13.8526316 L4.82420749,13.5578947 L4.92795389,13.6070175 L4.92795389,13.5087719 L5.23919307,13.2631579 L5.13544667,13.1157895 L5.18731987,13.0175438 L5.65417868,12.8210526 L5.86167145,12.8210526 L5.80979825,12.9192982 L6.01729106,12.6736842 L6.22478386,12.8210526 L6.27665706,12.7719298 L6.17291066,12.5754386 L6.58789624,12.3789474 L6.53602304,12.1333333 L6.79538904,12.1333333 L6.84726224,11.9859649 L7.05475505,11.9368421 L6.95100865,11.7403509 L7.10662825,11.7403509 L7.21037462,11.5929824 L7.31412102,11.6421053 L7.31412102,11.5438596 L7.52161383,11.3473684 L8.04034581,11.3473684 L8.29971182,11.2491228 L8.45533142,11.445614 L8.66282419,11.4947368 L8.76657059,11.3964912 L8.71469739,11.2 L8.76657059,11.2 Z M10.6359749,4.1754386 L10.6359749,4.40736842 L10.6359749,4.1754386 Z M4.35931783,13.6561403 L4.35931783,13.8880702 L4.35931783,13.6561403 Z M9.2708522,11.6912281 L9.0259366,11.6912281 L9.1483944,11.9231579 L9.2708522,11.6912281 Z" id="形状"></path>
                <polygon id="路径" points="10.1152738 8.20350876 10.2708934 8.20350876 10.426513 8.4 10.3227666 8.44912281 10.3746398 8.59649124 10.2708934 8.69473682 10.3227666 8.74385963 10.2190202 8.98947368 10.5302594 8.98947368 10.5821326 9.23508773 10.685879 9.23508773 10.685879 9.0877193 10.8414985 9.03859649 11.1008646 9.0877193 11.0489914 8.94035087 11.1527378 8.79298244 11.0489914 8.79298244 10.9971182 8.64561405 10.685879 8.44912281 10.685879 8.30175438 10.3746398 8.15438595 10.3746398 7.95789475 10.1152738 8.15438595"></polygon>
                <polygon id="路径" points="10.3746398 7.95789475 10.0634006 7.85964913 9.95965419 8.05614034 9.80403459 7.90877194 9.85590779 7.85964913 9.64841498 7.85964913 9.54466858 7.76140351 9.64841498 7.7122807 9.59654178 7.66315789 9.49279538 7.61403508 9.38904898 7.66315789 9.44092218 7.7122807 9.33717578 7.7122807 9.0778098 7.41754385 8.9740634 7.41754385 8.55907782 7.90877194 9.0259366 8.10526314 9.54466858 8.05614034 9.64841498 8.15438595 9.70028818 8.10526314 10.0634006 8.20350876 10.3227666 8.00701756"></polygon>
                <path d="M9.95965419,7.12280702 L9.85590779,7.17192983 L9.85590779,7.36842104 L9.70028818,7.22105264 L9.75216139,7.17192983 L9.64841498,7.17192983 L9.70028818,7.07368421 L9.54466858,7.0245614 L9.49279538,7.36842104 L9.28530261,7.31929826 L9.28530261,7.46666666 L9.0778098,7.41754385 L9.33717578,7.7122807 L9.44092218,7.7122807 L9.44092218,7.61403508 L9.54466858,7.66315789 L9.54466858,7.76140351 L9.64841498,7.85964913 L9.80403459,7.85964913 L9.95965419,8.05614034 L10.0634006,7.85964913 L10.3227666,7.95789475 L10.426513,7.90877194 L10.426513,7.7122807 L10.2190202,7.66315789 L10.167147,7.56491227 L10.2190202,7.46666666 L10.3746398,7.51578947 L10.3746398,7.41754385 L10.6340058,7.31929826 L10.7377522,7.12280702 L10.8414985,7.22105264 L10.8414985,7.0245614 L10.685879,6.9754386 L10.6340058,6.92631579 L10.7377522,6.82807017 L10.3746398,6.68070174 L10.426513,6.63157896 L10.3227666,6.63157896 L10.3227666,6.53333334 L10.0634006,6.72982455 L10.1152738,6.82807017 L10.2190202,6.82807017 L10.2190202,7.0245614 L10.3746398,6.92631579 L10.426513,6.9754386 L10.2190202,7.22105264 L10.0115274,7.12280702 L9.95965419,7.12280702 Z M9.2708522,6.93356724 L9.2708522,6.77894736 L9.10757514,6.77894736 L9.0259366,7.01087718 L9.18921367,6.93356724 L9.2708522,6.93356724 Z M9.0259366,8.10526314 L9.0778098,8.35087719 L9.1815562,8.44912281 L9.129683,8.59649124 L9.23342941,8.69473682 L9.23342941,8.79298244 L9.129683,8.79298244 L9.1815562,8.89122806 L9.33717578,8.98947368 L9.38904898,8.84210525 L9.54466858,8.94035087 L9.70028818,8.84210525 L9.85590779,8.98947368 L9.85590779,9.0877193 L9.75216139,9.0877193 L9.64841498,9.28421053 L9.70028818,9.43157893 L9.95965419,9.43157893 L9.95965419,9.33333334 L10.2190202,9.38245612 L10.2190202,9.23508773 L10.3227666,9.18596492 L10.2708934,8.69473682 L10.3746398,8.59649124 L10.3746398,8.30175438 L10.2708934,8.20350876 L9.70028818,8.10526314 L9.64841498,8.15438595 L9.54466858,8.05614034 L9.23342941,8.10526314 L9.129683,8.00701756 L9.0778098,8.10526314 L9.0259366,8.10526314 Z" id="形状"></path>
                <polygon id="路径" points="10.3746398 7.95789475 10.3746398 8.10526314 10.685879 8.30175438 10.7896253 8.49824562 11.0489914 8.49824562 11.1008646 8.30175438 10.945245 8.00701756 10.9971182 8.05614034 11.1008646 7.90877194 11.2564842 7.95789475 11.4121038 7.81052632 11.6195965 7.85964913 11.7752161 7.76140351 11.6714697 7.7122807 11.6714697 7.51578947 11.3602306 7.56491227 11.204611 7.31929826 11.1008646 7.41754385 11.0489914 7.27017545 10.7896253 7.27017545 10.8414985 7.22105264 10.7377522 7.12280702 10.7377522 7.22105264 10.3746398 7.41754385 10.3746398 7.51578947 10.2190202 7.46666666 10.2190202 7.66315789 10.426513 7.66315789 10.426513 7.90877194"></polygon>
                <polygon id="路径" points="11.7752161 7.81052632 11.463977 7.81052632 11.2564842 7.95789475 11.1008646 7.90877194 10.9971182 8.00701756 11.0489914 8.05614034 10.945245 8.05614034 11.0489914 8.20350876 11.0489914 8.49824562 10.8414985 8.49824562 10.9971182 8.64561405 10.9971182 8.74385963 11.1527378 8.79298244 11.0489914 8.94035087 11.1008646 9.0877193 10.9971182 9.0877193 10.9971182 9.18596492 11.2564842 9.43157893 11.4121038 9.8245614 11.6714697 10.0701754 11.8789625 10.1192982 11.9827089 10.0210526 11.9308357 9.97192983 12.3458213 9.67719298 12.5014409 9.8245614 12.6051873 9.8245614 12.6570605 9.57894736 12.7608069 9.72631579 12.7608069 9.92280702 12.9682997 9.92280702 12.9682997 9.8245614 13.2276657 9.87368421 13.3314121 9.62807017 13.4351585 9.57894736 13.4351585 9.48070174 13.2795389 9.43157893 13.3832853 9.0877193 13.3314121 8.79298244 13.5389049 8.69473682 13.5907781 8.54736843 13.6426513 8.59649124 13.7982709 8.4 13.7982709 8.15438595 13.6426513 8.35087719 13.5907781 8.30175438 13.6945245 7.90877194 13.5907781 7.81052632 13.4870317 7.81052632 13.4351585 7.90877194 13.2795389 7.85964913 13.2276657 7.7122807 12.7089337 7.56491227 12.6051873 7.41754385 12.0345821 7.51578947 12.0345821 7.7122807 11.9308357 7.7122807 11.8270893 7.90877194 11.7233429 7.85964913"></polygon>
                <polygon id="路径" points="11.3083574 5.45263157 11.2564842 5.64912281 11.0489914 5.89473686 11.1008646 6.04210525 11.204611 5.94385966 11.7233429 5.99298244 11.7752161 6.18947368 11.8270893 6.14035087 11.8789625 6.23859649 11.7233429 6.2877193 11.7233429 6.38596492 11.9827089 6.87719298 12.0864553 6.92631579 11.9827089 7.17192983 12.1902017 7.27017545 12.2939481 7.17192983 12.5014409 7.17192983 12.7089337 7.51578947 13.2276657 7.7122807 13.2276657 7.81052632 13.4351585 7.95789475 13.4870317 7.81052632 13.5907781 7.81052632 13.7982709 8.10526314 13.8501441 8.05614034 13.7463977 7.95789475 14.0576369 8.05614034 14.1095101 7.85964913 14.2132565 7.81052632 14.0576369 7.7122807 14.1095101 7.41754385 14.0576369 7.36842104 14.0576369 7.46666666 13.9538905 7.46666666 14.0576369 7.27017545 14.0057637 6.87719298 13.9538905 6.82807017 13.7982709 6.92631579 13.6945245 6.82807017 13.5907781 6.92631579 13.4870317 6.77894736 13.5907781 6.72982455 13.3832853 6.82807017 13.1239193 6.77894736 12.9682997 6.18947368 12.8645533 6.2877193 12.8126801 6.18947368 13.0720461 6.14035087 13.1757925 5.84561405 13.0201729 5.74736843 12.9682997 5.79649124 12.8126801 5.50175438 12.5533141 5.64912281 12.3976945 5.55087719 12.0345821 5.6 11.9308357 5.50175438 11.8789625 5.6 11.6714697 5.64912281 11.6195965 5.55087719 11.5677233 5.6 11.3602306 5.45263157"></polygon>
                <path d="M10.8414985,7.22105264 L10.7896253,7.27017545 L11.1008646,7.31929826 L11.1008646,7.41754385 L11.204611,7.31929826 L11.3602306,7.56491227 L11.6195965,7.51578947 L11.7752161,7.81052632 L11.7233429,7.85964913 L11.9308357,7.85964913 L11.8789625,7.81052632 L12.0345821,7.7122807 L11.9827089,7.66315789 L12.1383285,7.46666666 L12.5533141,7.51578947 L12.6051873,7.36842104 L12.5014409,7.17192983 L12.2939481,7.17192983 L12.1902017,7.27017545 L11.9827089,7.17192983 L12.0864553,6.92631579 L11.7233429,6.43508773 L11.8270893,6.14035087 L11.7752161,6.18947368 L11.7752161,6.09122806 L11.6195965,5.94385966 L11.204611,5.94385966 L11.1008646,6.04210525 L11.0489914,5.89473686 L11.2564842,5.64912281 L11.3083574,5.45263157 L10.2708934,5.40350876 L10.167147,5.35438595 L10.1152738,5.01052632 L9.95965419,4.9122807 L9.59654178,5.15789475 L9.23342941,5.25614037 L9.1815562,5.40350876 L8.66282419,5.30526318 L8.66282419,5.40350876 L8.9221902,5.50175438 L9.0259366,5.69824562 L8.9221902,5.89473686 L9.0259366,6.09122806 L9.23342941,6.18947368 L9.23342941,6.2877193 L9.59654178,6.38596492 L9.85590779,6.68070174 L9.80403459,6.72982455 L9.95965419,6.77894736 L9.95965419,6.87719298 L9.80403459,6.87719298 L9.95965419,7.12280702 L10.167147,7.22105264 L10.426513,7.0245614 L10.2190202,7.0245614 L10.167147,6.77894736 L10.0634006,6.77894736 L10.2190202,6.58245615 L10.426513,6.58245615 L10.3746398,6.68070174 L10.7377522,6.82807017 L10.6340058,6.92631579 L10.7896253,6.9754386 L10.8414985,7.12280702 L10.8414985,7.22105264 Z M6.84726224,5.99298244 L6.58789624,5.74736843 L6.69164264,6.23859649 L6.84726224,6.43508773 L7.00288185,7.27017545 L7.21037462,7.46666666 L7.21037462,7.7122807 L7.31412102,7.90877194 L7.26224782,8.00701756 L7.52161383,8.44912281 L7.98847261,8.54736843 L8.35158502,8.05614034 L8.35158502,8.15438595 L8.50720462,8.20350876 L8.45533142,8.15438595 L8.55907782,8.00701756 L8.76657059,8.00701756 L8.55907782,7.85964913 L9.0259366,7.36842104 L8.71469739,7.17192983 L8.71469739,7.27017545 L8.35158502,7.07368421 L8.40345822,7.17192983 L8.19596541,7.17192983 L7.67723343,6.82807017 L7.46974063,6.48421053 L7.31412102,6.53333334 L7.26224782,6.38596492 L6.84726224,6.04210525 L6.84726224,5.99298244 Z" id="形状"></path>
                <path d="M9.0259366,8.10526314 L8.61095102,8.00701756 L8.50720462,8.05614034 L8.45533142,8.20350876 L8.35158502,8.20350876 L8.29971182,8.05614034 L8.19596541,8.20350876 L8.19596541,8.4 L8.04034581,8.4 L8.09221901,8.49824562 L7.78097984,8.54736843 L7.62536023,8.44912281 L7.62536023,8.64561405 L7.83285304,8.98947368 L7.78097984,9.43157893 L7.88472624,9.67719298 L8.40345822,9.67719298 L8.40345822,9.7754386 L8.66282419,9.87368421 L8.66282419,10.2175438 L8.9221902,10.6596491 L8.76657059,11.2 L8.9740634,11.2 L8.9221902,11.3473684 L9.0778098,11.5929824 L9.1815562,11.5929824 L9.28530261,11.7403509 L9.28530261,11.8877193 L9.49279538,12.1824561 L9.80403459,12.0842105 L9.80403459,12.1824561 L10.1152738,12.1824561 L10.167147,12.2807017 L10.7377522,12.5754386 L10.945245,12.3789474 L10.945245,12.1824561 L11.4121038,11.3964912 L11.3602306,11.2982456 L11.6195965,10.954386 L11.5677233,10.9052631 L11.6714697,10.8070175 L11.7233429,10.5614035 L11.8789625,10.5122807 L12.0864553,10.168421 L11.6714697,10.0701754 L11.4121038,9.8245614 L11.3083574,9.52982455 L10.8933717,9.03859649 L10.7377522,9.0877193 L10.7377522,9.23508773 L10.5302594,9.23508773 L10.5821326,9.03859649 L10.426513,8.98947368 L10.2708934,9.0877193 L10.3227666,9.13684211 L10.2190202,9.38245612 L10.1152738,9.43157893 L10.0115274,9.33333334 L9.70028818,9.43157893 L9.64841498,9.28421053 L9.75216139,9.0877193 L9.85590779,9.0877193 L9.85590779,8.98947368 L9.70028818,8.84210525 L9.59654178,8.84210525 L9.59654178,8.94035087 L9.44092218,8.84210525 L9.33717578,8.89122806 L9.33717578,8.98947368 L9.1815562,8.94035087 L9.129683,8.84210525 L9.23342941,8.64561405 L9.0259366,8.20350876 L9.0778098,8.15438595 L9.0259366,8.10526314 Z M9.2708522,11.6912281 L9.0259366,11.6912281 L9.1483944,11.9231579 L9.2708522,11.6912281 Z M9.49279538,7.07368421 L9.1815562,6.87719298 L9.0259366,6.87719298 L9.33717578,6.33684211 L9.1815562,6.23859649 L9.1815562,6.14035087 L9.0259366,6.14035087 L8.9221902,5.94385966 L9.0259366,5.79649124 L8.9221902,5.6 L8.9740634,5.50175438 L8.19596541,5.15789475 L8.04034581,5.20701756 L8.04034581,5.30526318 L7.93659941,5.30526318 L7.88472624,5.15789475 L7.57348703,5.10877194 L7.41786743,4.96140351 L7.31412102,5.01052632 L7.31412102,5.35438595 L7.21037462,5.6 L7.15850145,5.55087719 L7.26224782,5.74736843 L7.00288185,5.79649124 L7.00288185,5.94385966 L6.84726224,5.99298244 L6.95100865,6.18947368 L7.21037462,6.33684211 L7.31412102,6.53333334 L7.46974063,6.48421053 L7.62536023,6.82807017 L7.83285304,6.87719298 L8.19596541,7.17192983 L8.40345822,7.17192983 L8.35158502,7.07368421 L8.66282419,7.27017545 L8.8184438,7.27017545 L9.0259366,7.46666666 L9.23342941,7.46666666 L9.38904898,7.31929826 L9.49279538,7.41754385 L9.49279538,7.12280702 L9.49279538,7.07368421 Z M9.129683,6.77894736 L9.49279538,7.07368421 L9.64841498,7.0245614 L9.85590779,7.36842104 L9.90778099,7.31929826 L9.80403459,7.17192983 L9.95965419,7.07368421 L9.80403459,6.92631579 L9.80403459,6.82807017 L9.95965419,6.82807017 L9.90778099,6.72982455 L9.80403459,6.72982455 L9.85590779,6.68070174 L9.70028818,6.53333334 L9.70028818,6.43508773 L9.33717578,6.33684211 L9.129683,6.77894736 Z" id="形状"></path>
                <path d="M8.76657059,11.2 L8.9221902,10.6596491 L8.66282419,10.2175438 L8.71469739,10.0701754 L8.55907782,9.7754386 L8.19596541,9.62807017 L7.88472624,9.67719298 L7.78097984,9.48070174 L7.52161383,9.57894736 L7.62536023,9.72631579 L7.10662825,9.7754386 L7.00288185,10.0210526 L7.05475505,10.0701754 L6.74351584,10.4140351 L6.74351584,10.5122807 L7.15850145,11.0035088 L7.21037462,11.2491228 L7.00288185,11.445614 L7.05475505,11.4947368 L7.31412102,11.4947368 L7.62536023,11.2982456 L8.04034581,11.3473684 L8.29971182,11.2491228 L8.45533142,11.445614 L8.66282419,11.4947368 L8.76657059,11.3964912 L8.71469739,11.2 L8.76657059,11.2 Z M17.7925072,9.62807017 L17.9481268,9.33333334 L17.9481268,9.13684211 L17.8443804,9.18596492 L17.5850144,8.84210525 L17.2737752,8.94035087 L17.221902,8.89122806 L17.5331412,8.25263157 L17.3256484,8.25263157 L17.2737752,8.00701756 L16.962536,7.7122807 L17.0144092,7.46666666 L16.5994236,7.36842104 L16.4438041,6.82807017 L16.2881845,6.92631579 L16.2363113,6.87719298 L16.2881845,6.82807017 L16.1325649,6.33684211 L15.6138329,6.23859649 L15.4582133,6.09122806 L15.3025937,6.14035087 L15.1469741,5.94385966 L14.9394813,5.94385966 L14.8357349,5.84561405 L14.4207493,5.74736843 L14.5763689,5.40350876 L14.3688761,5.20701756 L14.1095101,5.10877194 L13.8501441,5.05964913 L13.7463977,5.15789475 L13.5389049,5.10877194 L13.3314121,5.20701756 L13.2795389,5.10877194 L13.1757925,5.30526318 L13.0201729,5.15789475 L12.9682997,5.20701756 L12.8645533,5.6 L12.9682997,5.79649124 L13.0201729,5.74736843 L13.1757925,5.84561405 L13.1757925,5.94385966 L13.0201729,6.14035087 L12.8126801,6.14035087 L12.9164265,6.2877193 L12.9682997,6.18947368 L13.0201729,6.2877193 L13.0201729,6.48421053 L13.1239193,6.58245615 L13.0720461,6.72982455 L13.3314121,6.82807017 L13.5907781,6.68070174 L13.5907781,6.92631579 L13.6945245,6.82807017 L13.7463977,6.92631579 L14.0057637,6.82807017 L14.0576369,7.27017545 L13.9538905,7.46666666 L14.0576369,7.46666666 L14.0576369,7.36842104 L14.1095101,7.41754385 L14.0576369,7.7122807 L14.2132565,7.81052632 L14.0576369,7.95789475 L14.0576369,8.05614034 L13.8501441,7.95789475 L13.7463977,7.95789475 L13.8501441,8.10526314 L13.6945245,8.00701756 L13.6426513,8.05614034 L13.5907781,8.30175438 L13.6426513,8.35087719 L13.7463977,8.15438595 L13.7982709,8.25263157 L13.6945245,8.59649124 L13.5907781,8.54736843 L13.5389049,8.69473682 L13.6426513,8.79298244 L14.2132565,8.74385963 L14.4207493,8.54736843 L14.5244957,8.54736843 L14.4726225,8.49824562 L14.5763689,8.4 L14.8357349,8.4 L14.8876081,8.25263157 L14.9913545,8.25263157 L15.0432277,8.4 L15.1469741,8.35087719 L15.3025937,8.49824562 L15.5100865,8.49824562 L15.7175793,8.64561405 L15.8731988,8.59649124 L16.0806917,8.69473682 L16.1325649,8.84210525 L15.9769452,9.03859649 L16.0288184,9.18596492 L16.4438041,9.38245612 L16.4438041,9.57894736 L16.70317,9.67719298 L16.7550432,9.92280702 L16.9106628,9.8245614 L17.1181556,9.8245614 L17.1700288,9.62807017 L17.7925072,9.62807017 L17.7925072,9.62807017 Z" id="形状"></path>
                <path d="M1.19308356,6.68070174 L0.881844356,6.48421053 L0.726224786,6.48421053 L0.622478383,6.58245615 L0.155619571,6.68070174 L0.155619571,6.77894736 L0,6.82807017 L0,6.92631579 L0.414985577,7.41754385 L0.363112376,7.61403508 L0.726224786,7.46666666 L1.03746396,7.95789475 L1.19308356,7.95789475 L1.34870317,8.15438595 L1.29682997,8.79298244 L1.40057637,8.89122806 L1.45244957,8.84210525 L1.65994234,9.13684211 L1.55619594,9.38245612 L1.60806914,9.48070174 L1.86743515,9.43157893 L2.07492795,9.52982455 L2.12680116,9.67719298 L2.48991353,9.72631579 L2.48991353,9.62807017 L2.64553314,9.52982455 L2.80115274,9.52982455 L2.90489914,9.62807017 L2.95677231,9.28421053 L3.21613832,9.33333334 L3.37175792,9.18596492 L3.57925073,9.33333334 L3.8904899,9.28421053 L4.30547551,9.62807017 L4.46109508,9.92280702 L4.61671469,9.97192983 L4.61671469,9.87368421 L4.77233429,9.87368421 L4.9798271,9.97192983 L4.92795389,10.0210526 L5.08357347,10.168421 L5.08357347,10.2666667 L5.29106627,10.3157895 L5.34293947,10.4631579 L5.39481267,10.4140351 L5.55043228,10.5122807 L6.01729106,10.4140351 L6.01729106,10.3157895 L5.91354465,10.2666667 L6.01729106,10.1192982 L6.06916426,10.168421 L6.22478386,10.0210526 L6.69164264,10.2175438 L6.74351584,10.4140351 L7.00288185,10.168421 L7.15850145,9.72631579 L7.31412102,9.72631579 L7.15850145,9.33333334 L6.84726224,9.0877193 L6.43227667,9.23508773 L6.06916426,9.62807017 L5.96541785,9.28421053 L5.75792508,9.38245612 L5.39481267,9.38245612 L5.34293947,9.33333334 L5.44668587,9.18596492 L5.34293947,8.89122806 L5.44668587,8.69473682 L5.39481267,8.35087719 L5.29106627,8.20350876 L5.34293947,7.95789475 L5.0317003,7.61403508 L4.92795389,7.66315789 L4.87608069,7.56491227 L4.51296828,7.41754385 L4.20172911,7.46666666 L3.9942363,7.27017545 L3.7348703,7.41754385 L3.57925073,7.27017545 L3.47550432,7.27017545 L3.26801152,7.56491227 L3.06051871,7.31929826 L2.85302594,7.51578947 L2.64553314,7.46666666 L2.38616713,7.07368421 L2.17867436,7.12280702 L1.97118155,7.31929826 L1.40057637,6.9754386 L1.24495677,6.82807017 L1.24495677,6.72982455 L1.19308356,6.68070174 Z M4.25360231,13.7052631 L4.25360231,13.8035088 L4.40922188,13.9508772 L4.51296828,13.8526316 L4.51296828,13.7052631 L4.35734868,13.6070175 L4.35734868,13.5087719 L4.46109508,13.5087719 L4.66858789,13.8526316 L4.82420749,13.5578947 L4.92795389,13.6070175 L4.92795389,13.5087719 L5.23919307,13.2631579 L5.13544667,13.1157895 L5.18731987,13.0175438 L5.65417868,12.8210526 L5.86167145,12.8210526 L5.80979825,12.9192982 L6.01729106,12.6736842 L6.22478386,12.8210526 L6.27665706,12.7719298 L6.17291066,12.5754386 L6.58789624,12.3789474 L6.58789624,11.8877193 L6.22478386,11.7403509 L6.22478386,11.6421053 L6.12103746,11.6912281 L5.96541785,11.5929824 L5.44668587,11.6912281 L5.34293947,11.5929824 L5.34293947,11.3964912 L5.0317003,11.4947368 L4.77233429,11.445614 L4.66858789,11.4947368 L4.72046109,11.5438596 L4.61671469,11.5438596 L4.61671469,11.445614 L4.25360231,11.5929824 L4.09798271,11.445614 L3.8904899,11.5929824 L3.9423631,11.6421053 L3.63112389,11.6912281 L3.26801152,11.8877193 L3.26801152,12.0350877 L3.16426512,11.9368421 L3.16426512,12.0842105 L3.00864551,12.1824561 L3.11239191,12.477193 L3.57925073,12.5263158 L3.63112389,12.6736842 L3.47550432,12.968421 L3.47550432,13.1157895 L3.57925073,13.2140351 L3.57925073,13.4105263 L3.47550432,13.5087719 L3.8386167,13.9508772 L3.9942363,13.754386 L4.09798271,13.7052631 L4.14985591,13.8035088 L4.25360231,13.6561403 L4.20172911,13.6070175 L4.30547551,13.6070175 L4.25360231,13.6561403 L4.25360231,13.7052631 Z M4.35931783,13.6561403 L4.35931783,13.8880702 L4.35931783,13.6561403 Z M4.14985591,5.79649124 L4.51296828,5.89473686 L4.56484148,6.04210525 L4.77233429,6.04210525 L4.82420749,6.18947368 L5.23919307,6.2877193 L5.29106627,6.43508773 L5.34293947,6.38596492 L5.60230548,6.53333334 L5.65417868,6.48421053 L5.86167145,6.72982455 L5.86167145,6.9754386 L6.53602304,6.87719298 L6.69164264,6.92631579 L6.84726224,7.12280702 L6.95100865,7.12280702 L6.84726224,6.48421053 L6.69164264,6.2877193 L6.58789624,5.74736843 L6.84726224,5.99298244 L7.21037462,5.74736843 L7.15850145,5.6 L7.26224782,5.50175438 L7.31412102,5.01052632 L7.46974063,4.9122807 L7.46974063,4.71578947 L7.15850145,4.37192983 L7.21037462,4.27368421 L6.95100865,3.83157896 L7.46974063,3.68421053 L7.10662825,3.29122806 L7.10662825,3.09473686 L7.00288185,2.99649124 L7.05475505,2.84912281 L6.89913545,2.8 L6.63976944,2.55438599 L6.53602304,2.30877194 L6.89913545,1.62105264 L6.79538904,1.4245614 L6.84726224,1.27719298 L6.69164264,1.12982458 L6.63976944,0.884210535 L6.48414983,0.687719298 L6.43227667,0.835087725 L6.27665706,0.884210535 L6.22478386,0.835087725 L5.86167145,0.933333344 L5.80979825,0.835087725 L5.65417868,0.982456153 L5.44668587,0.982456153 L5.55043228,1.47368421 L5.44668587,1.81754388 L5.55043228,1.9157895 L5.60230548,2.55438599 L5.44668587,2.70175438 L5.0317003,3.4877193 L5.08357347,3.58596492 L4.9798271,3.68421053 L4.9798271,3.92982458 L4.82420749,4.12631579 L4.9798271,4.2245614 L4.9798271,4.76491227 L4.40922188,5.20701756 L4.35734868,5.64912281 L4.25360231,5.74736843 L4.14985591,5.79649124 Z" id="形状"></path>
                <path d="M10.945245,5.45263157 L10.8933717,5.35438595 L11.1527378,4.86315789 L11.0489914,4.56842107 L10.8933717,4.42105264 L10.685879,4.32280702 L10.6340058,4.37192983 L10.685879,4.2245614 L10.3227666,4.12631579 L10.1152738,3.73333334 L9.75216139,3.43859649 L9.75216139,3.04561405 L9.59654178,2.94736843 L9.64841498,2.84912281 L9.59654178,2.70175438 L9.49279538,2.65263157 L9.54466858,2.60350876 L9.23342941,2.35789475 L9.0259366,2.35789475 L9.0778098,2.30877194 L8.870317,2.1122807 L8.870317,1.67017545 L8.71469739,1.62105264 L8.50720462,1.3754386 L8.50720462,1.12982458 L8.870317,0.835087725 L8.50720462,0.245614046 L8.55907782,0.196491237 L8.19596541,0.147368428 L7.93659941,0.245614046 L7.78097984,0.0982456185 L7.78097984,0 L7.41786743,0 L7.15850145,0.147368428 L7.10662825,0.343859665 L6.74351584,0.442105283 L6.48414983,0.687719298 L6.84726224,1.27719298 L6.79538904,1.4245614 L6.89913545,1.57192983 L6.89913545,1.71929826 L6.63976944,2.01403508 L6.53602304,2.35789475 L6.63976944,2.55438599 L7.05475505,2.84912281 L7.00288185,2.99649124 L7.10662825,3.29122806 L7.31412102,3.4877193 L7.26224782,3.58596492 L7.52161383,3.68421053 L6.95100865,3.83157896 L7.21037462,4.2245614 L7.15850145,4.37192983 L7.46974063,4.76491227 L7.41786743,4.96140351 L7.57348703,5.10877194 L7.78097984,5.10877194 L7.93659941,5.30526318 L8.04034581,5.30526318 L8.04034581,5.20701756 L8.19596541,5.15789475 L8.45533142,5.30526318 L9.129683,5.40350876 L9.28530261,5.20701756 L9.64841498,5.15789475 L9.80403459,4.96140351 L9.95965419,4.9122807 L10.1152738,5.01052632 L10.2190202,5.40350876 L10.8933717,5.40350876 L10.945245,5.45263157 Z M10.6359749,4.1754386 L10.6359749,4.40736842 L10.6359749,4.1754386 Z M6.53602304,12.0842105 L6.79538904,12.1333333 L6.84726224,11.9859649 L7.05475505,11.9368421 L6.95100865,11.7403509 L7.10662825,11.7403509 L7.21037462,11.5929824 L7.31412102,11.6421053 L7.31412102,11.5438596 L7.15850145,11.3964912 L7.10662825,11.4947368 L7.00288185,11.445614 L7.21037462,11.2491228 L7.15850145,11.0035088 L6.74351584,10.5122807 L6.69164264,10.2175438 L6.32853026,10.1192982 L6.27665706,10.0210526 L6.06916426,10.168421 L6.01729106,10.1192982 L5.91354465,10.2666667 L6.01729106,10.4140351 L5.96541785,10.4631579 L5.34293947,10.4631579 L5.34293947,10.3649123 L5.18731987,10.3157895 L4.92795389,10.0210526 L4.9798271,9.97192983 L4.77233429,9.87368421 L4.56484148,9.97192983 L4.46109508,9.92280702 L4.09798271,9.43157893 L3.8904899,9.28421053 L3.6829971,9.23508773 L3.63112389,9.33333334 L3.42363112,9.18596492 L3.21613832,9.33333334 L2.90489914,9.33333334 L2.90489914,9.62807017 L2.59365993,9.52982455 L2.48991353,9.72631579 L2.12680116,9.67719298 L2.07492795,9.52982455 L1.86743515,9.43157893 L1.76368875,9.52982455 L1.81556195,9.67719298 L1.71181554,9.87368421 L1.24495677,10.2175438 L1.40057637,10.3157895 L1.40057637,10.4140351 L1.19308356,10.4140351 L1.19308356,11.0035088 L1.29682997,11.0526316 L0.985590759,11.4947368 L0.881844356,11.5929824 L0.829971155,11.5438596 L0.674351584,11.7403509 L0.674351584,12.1333333 L0.778097953,12.2315789 L0.881844356,12.6736842 L1.29682997,12.7719298 L1.55619594,12.722807 L1.81556195,12.3298245 L2.02305475,12.4280702 L2.17867436,12.7719298 L2.28242073,12.722807 L2.38616713,12.3789474 L2.59365993,12.2315789 L3.16426512,12.0842105 L3.16426512,11.9368421 L3.26801152,12.0350877 L3.26801152,11.9368421 L3.57925073,11.7894737 L3.57925073,11.6912281 L3.8386167,11.6912281 L4.09798271,11.445614 L4.25360231,11.5929824 L4.61671469,11.445614 L4.61671469,11.5438596 L4.72046109,11.5438596 L4.72046109,11.445614 L5.0317003,11.4947368 L5.29106627,11.3964912 L5.39481267,11.445614 L5.34293947,11.5929824 L5.44668587,11.6912281 L5.75792508,11.5929824 L5.96541785,11.5929824 L6.12103746,11.6912281 L6.17291066,11.6421053 L6.58789624,11.8877193 L6.63976944,11.9859649 L6.53602304,12.0842105 L6.53602304,12.0842105 Z M4.14985591,5.79649124 L3.9423631,5.94385966 L3.6829971,5.94385966 L3.52737752,6.09122806 L3.42363112,6.09122806 L3.26801152,6.33684211 L2.95677231,6.48421053 L2.85302594,6.48421053 L2.80115274,6.33684211 L2.69740634,6.33684211 L2.54178673,6.18947368 L2.17867436,6.23859649 L1.97118155,6.14035087 L1.71181554,6.14035087 L1.29682997,6.68070174 L1.19308356,6.68070174 L1.24495677,6.82807017 L1.34870317,6.9754386 L1.50432274,6.9754386 L1.71181554,7.22105264 L1.86743515,7.22105264 L1.97118155,7.31929826 L2.23054752,7.07368421 L2.33429393,7.07368421 L2.43804033,7.12280702 L2.43804033,7.22105264 L2.54178673,7.22105264 L2.64553314,7.46666666 L2.85302594,7.51578947 L3.06051871,7.31929826 L3.21613832,7.56491227 L3.47550432,7.27017545 L3.57925073,7.27017545 L3.7348703,7.41754385 L3.9942363,7.27017545 L4.20172911,7.46666666 L4.66858789,7.46666666 L4.87608069,7.66315789 L4.9798271,7.61403508 L5.34293947,7.95789475 L5.29106627,8.20350876 L5.44668587,8.69473682 L5.34293947,8.89122806 L5.44668587,9.18596492 L5.34293947,9.28421053 L5.39481267,9.38245612 L5.70605188,9.38245612 L5.96541785,9.28421053 L6.06916426,9.48070174 L6.01729106,9.62807017 L6.48414983,9.23508773 L6.84726224,9.0877193 L7.15850145,9.33333334 L7.31412102,9.72631579 L7.62536023,9.72631579 L7.52161383,9.62807017 L7.57348703,9.52982455 L7.83285304,9.48070174 L7.83285304,8.98947368 L7.31412102,8.10526314 L7.21037462,7.51578947 L7.00288185,7.17192983 L6.84726224,7.17192983 L6.74351584,6.9754386 L6.53602304,6.87719298 L5.86167145,7.0245614 L5.86167145,6.77894736 L5.65417868,6.48421053 L5.60230548,6.53333334 L5.29106627,6.38596492 L5.18731987,6.23859649 L4.87608069,6.18947368 L4.82420749,6.04210525 L4.61671469,6.04210525 L4.51296828,5.89473686 L4.14985591,5.84561405 L4.14985591,5.79649124 Z M11.7233429,11.9859649 L11.7233429,12.0842105 L11.7752161,12.0350877 L11.8270893,12.1333333 L11.7233429,12.2807017 L12.0345821,12.4280702 L12.0864553,12.6245614 L12.9682997,13.0175438 L12.8645533,13.0175438 L12.9682997,13.1649123 L13.1239193,13.2140351 L13.2276657,13.6070175 L13.4351585,13.6561403 L13.4351585,13.9017544 L13.5907781,14 L13.6426513,13.8526316 L13.7982709,13.8526316 L13.6426513,13.8035088 L13.8501441,13.6561403 L13.7463977,13.5578947 L13.7982709,13.4596491 L14.0057637,13.2631579 L14.1613833,13.2631579 L14.1613833,12.968421 L14.2651297,12.9192982 L14.3170029,13.0175438 L14.4207493,13.0175438 L14.5244957,12.9192982 L14.8357349,12.9192982 L15.1988473,12.6245614 L15.1469741,12.3789474 L15.7175793,12.4280702 L15.5619597,12.1333333 L15.6657061,11.9368421 L15.7175793,12.0350877 L16.0288184,12.0842105 L16.1844381,11.7894737 L16.3400577,11.7403509 L16.3919309,11.8877193 L16.8587896,11.7894737 L17.0662824,12.0350877 L17.1700288,11.8385965 L17.221902,11.8877193 L17.3256484,11.8385965 L17.2737752,11.7894737 L17.5331412,11.7403509 L17.5331412,11.3964912 L17.3775216,11.2 L17.4293948,11.1508772 L17.5331412,11.3473684 L17.6887608,11.1508772 L17.8443804,11.2 L17.8443804,11.1017544 L18,10.954386 L17.8443804,10.8561403 L17.7925072,10.9052631 L17.7925072,9.62807017 L17.221902,9.62807017 L17.1181556,9.67719298 L17.1181556,9.8245614 L16.7550432,9.92280702 L16.8069164,9.8245614 L16.4438041,9.57894736 L16.4438041,9.38245612 L16.0288184,9.18596492 L15.9769452,9.0877193 L16.1325649,8.84210525 L16.0806917,8.69473682 L15.8731988,8.59649124 L15.7175793,8.64561405 L15.5619597,8.49824562 L15.3544669,8.49824562 L14.8876081,8.25263157 L14.8357349,8.4 L14.5763689,8.4 L14.4726225,8.49824562 L14.5244957,8.54736843 L14.4207493,8.54736843 L14.3170029,8.69473682 L13.9538905,8.79298244 L13.6945245,8.79298244 L13.4870317,8.69473682 L13.3314121,8.79298244 L13.3832853,9.0877193 L13.2795389,9.38245612 L13.4351585,9.52982455 L13.2795389,9.67719298 L13.2276657,9.87368421 L12.9682997,9.8245614 L12.9682997,9.92280702 L12.7608069,9.92280702 L12.7608069,9.72631579 L12.6570605,9.57894736 L12.5533141,9.62807017 L12.6570605,9.62807017 L12.6570605,9.8245614 L12.3458213,9.67719298 L11.9308357,9.97192983 L11.9827089,10.0210526 L11.8270893,10.168421 L12.0864553,10.168421 L11.8789625,10.5614035 L11.6714697,10.6596491 L11.5677233,10.9052631 L11.6195965,10.954386 L11.3602306,11.2982456 L11.3602306,11.5438596 L11.463977,11.6421053 L11.7233429,11.6421053 L11.7233429,11.9368421 L11.7233429,11.9859649 Z" id="形状"></path>
            </g>
        </g>
    </g>
</svg>