<?xml version="1.0" encoding="UTF-8"?>
<svg width="25px" height="25px" viewBox="0 0 25 25" version="1.1" xmlns="http://www.w3.org/2000/svg" xmlns:xlink="http://www.w3.org/1999/xlink">
    <title>city-no</title>
    <g id="页面-1" stroke="none" stroke-width="1" fill="none" fill-rule="evenodd">
        <g id="图标" transform="translate(-86.000000, -673.000000)" fill-rule="nonzero">
            <g id="city-no" transform="translate(86.000000, 673.000000)">
                <polygon id="路径" fill-opacity="0.01" fill="#FFFFFF" points="0 0 25 0 25 25 0 25"></polygon>
                <path d="M2.52380952,23 C2.2095238,23 2,22.8 2,22.5 C2,22.2 2.2095238,22 2.52380952,22 L3.12723993,22.0011203 C3.04496635,21.8067065 3,21.5917749 3,21.3636364 L3,12.6363636 C3,11.7090909 3.74285713,11 4.71428571,11 L9.83333332,11 C9.89037036,11 9.94648559,11.0039111 10.0013922,11.0114629 L10,3.05263159 C10,2.47368421 10.495,2 11.1,2 L20.3636364,2 C21.2909091,2 22,2.68249999 22,3.575 L22,21.425 C22,21.6299705 21.9626003,21.8238649 21.8937473,22.0009599 L23.4761905,22 C23.7904762,22 24,22.2 24,22.5 C24,22.8 23.7904762,23 23.4761905,23 L2.52380952,23 Z M16.4545455,15.9 L14.2727273,15.9 C13.9454545,15.9 13.7272727,16.12 13.7272727,16.45 C13.7272727,16.78 13.9454545,17 14.2727273,17 L16.4545455,17 C16.7818182,17 17,16.78 17,16.45 C17,16.12 16.7818182,15.9 16.4545455,15.9 Z M16.4545455,10.95 L14.2727273,10.95 C13.9454545,10.95 13.7272727,11.17 13.7272727,11.5 C13.7272727,11.83 13.9454545,12.05 14.2727273,12.05 L16.4545455,12.05 C16.7818182,12.05 17,11.83 17,11.5 C17,11.17 16.7818182,10.95 16.4545455,10.95 Z M16.4545455,6 L14.2727273,6 C13.9454545,6 13.7272727,6.22000002 13.7272727,6.55000002 C13.7272727,6.88000002 13.9454545,7.10000001 14.2727273,7.10000001 L16.4545455,7.10000001 C16.7818182,7.10000001 17,6.88000004 17,6.55000002 C17,6.21999999 16.7818182,6 16.4545455,6 Z" id="形状结合" fill="#8590B3"></path>
            </g>
        </g>
    </g>
</svg>