<?xml version="1.0" encoding="UTF-8"?>
<svg width="23px" height="21px" viewBox="0 0 23 21" version="1.1" xmlns="http://www.w3.org/2000/svg" xmlns:xlink="http://www.w3.org/1999/xlink">
    <title>forecast</title>
    <defs>
        <linearGradient x1="50%" y1="0%" x2="50%" y2="100%" id="linearGradient-1">
            <stop stop-color="#4E89EE" offset="0%"></stop>
            <stop stop-color="#32BEFD" offset="100%"></stop>
        </linearGradient>
    </defs>
    <g id="页面-1" stroke="none" stroke-width="1" fill="none" fill-rule="evenodd">
        <g id="图标" transform="translate(-55.000000, -648.000000)" fill="url(#linearGradient-1)" fill-rule="nonzero">
            <g id="forecast" transform="translate(55.000000, 648.000000)">
                <path d="M20.7644,2.88181521 L20.1825,2.28762651 L18.4391,4.07019262 L19.021,4.66438133 L20.7644,2.88181521 L20.7644,2.88181521 Z M14.7867,0 L13.9633,0 L13.9633,2.52073131 L14.7867,2.52073131 L14.7867,0 Z M10.3086,4.06790728 L8.5652,2.28762651 L7.9833,2.88181521 L9.7267,4.66438133 L10.3086,4.06790728 L10.3086,4.06790728 Z M20.5344,8.40319948 L20.5344,9.24420503 L23,9.24420503 L23,8.40319948 L20.5344,8.40319948 Z M19.7156,8.82370225 C19.7156,5.80933725 17.3259,3.36173686 14.375,3.36173686 C12.3349,3.36173686 10.5639,4.53411688 9.6646,6.25726412 C8.9493,6.01958864 8.188,5.88246817 7.3945,5.88246817 C3.3097,5.88018283 0,9.2647731 0,13.4400914 C0,17.6154097 3.3097,21 7.3922,21 L15.6078,21 L15.6078,20.9794319 C18.3655,20.7646099 20.5344,18.4152791 20.5344,15.5403199 C20.5344,14.0159974 19.9226,12.6379367 18.9359,11.6460986 C19.4281,10.8233758 19.7156,9.8589618 19.7156,8.82370225 L19.7156,8.82370225 Z M17.5835,10.6679726 C16.8636,10.2977473 16.054,10.0852106 15.1915,10.0852106 C14.8051,10.0852106 14.4256,10.1286321 14.0622,10.208619 C13.4343,8.85341169 12.4131,7.72902383 11.1619,6.9611492 C11.1688,6.9611492 11.1711,6.9611492 11.1734,6.96343454 C11.8105,5.82076396 12.9973,5.04146262 14.3704,5.04146262 C16.4105,5.04146262 18.0688,6.73947111 18.0688,8.82370225 C18.0688,9.49559256 17.8825,10.1194907 17.5812,10.6634019 C17.5835,10.6656872 17.5835,10.6679726 17.5835,10.6679726 Z" id="形状"></path>
            </g>
        </g>
    </g>
</svg>