<?xml version="1.0" encoding="UTF-8"?>
<svg width="22px" height="21px" viewBox="0 0 22 21" version="1.1" xmlns="http://www.w3.org/2000/svg" xmlns:xlink="http://www.w3.org/1999/xlink">
    <title>home</title>
    <defs>
        <linearGradient x1="50%" y1="0%" x2="50%" y2="100%" id="linearGradient-1">
            <stop stop-color="#4E89EE" offset="0%"></stop>
            <stop stop-color="#32BEFD" offset="100%"></stop>
        </linearGradient>
    </defs>
    <g id="页面-1" stroke="none" stroke-width="1" fill="none" fill-rule="evenodd">
        <g id="图标" transform="translate(-20.000000, -648.000000)" fill="url(#linearGradient-1)" fill-rule="nonzero">
            <g id="home" transform="translate(20.000000, 648.000000)">
                <path d="M17.3332888,21 C17.2907411,21 17.2565382,20.9987786 17.232024,20.9974893 L4.27578606,20.9974893 C3.40788252,20.9974893 2.90829937,20.6160147 2.64204576,20.2959968 C2.05858101,19.5947306 2.10544199,18.6439508 2.13175524,18.3801419 L2.13175524,10.2478241 L3.51894435,10.2478241 L3.51894435,18.4792823 L3.51239855,18.5218745 C3.495904,18.6666606 3.49434342,19.1162419 3.69206121,19.3499445 C3.73389363,19.3993903 3.86118991,19.5498539 4.27580773,19.5498539 L17.2873815,19.5498539 L17.3036376,19.5517087 C17.3503035,19.5534277 17.7873114,19.5615255 18.0621699,19.2902974 C18.245409,19.1094787 18.3383073,18.8104968 18.3383073,18.4016302 L18.3383073,10.2415812 L19.7254964,10.2415812 L19.7254964,18.4016302 C19.7254964,19.4392003 19.3299958,20.0386118 18.9981975,20.3587654 C18.4014027,20.9346528 17.6453413,21 17.3332888,21 Z M2.82532812,10.9271496 L0.693630278,10.9271496 C0.405567724,10.9271496 0.147487756,10.7413429 0.0452155797,10.4603122 C-0.0570565968,10.1792816 0.0177697579,9.86153356 0.233213543,9.66198416 L10.46848,0.182460683 C10.7290115,-0.0588420359 11.1206106,-0.0610587276 11.3836564,0.177326101 L21.7611531,9.5822285 C21.9769418,9.77778816 22.055693,10.0914554 21.9595166,10.3723135 C21.8633403,10.6531716 21.6119296,10.8437114 21.3262476,10.8522571 L19.0517343,10.9203864 C19.0449501,10.9206126 19.0382092,10.9207031 19.0314467,10.9207031 C18.6576209,10.9207031 18.3493181,10.6101627 18.3385023,10.2176499 C18.3275132,9.81805734 18.6290101,9.48482978 19.0119176,9.47336179 L19.5089432,9.45847829 L10.9338603,1.68696097 L2.52008149,9.47951424 L2.82532812,9.47951424 C3.20838739,9.47951424 3.51892267,9.80358099 3.51892267,10.2033319 C3.51892267,10.6030829 3.20838739,10.9271496 2.82532812,10.9271496 L2.82532812,10.9271496 Z M8.60494317,20.2805252 C8.2817281,20.2805252 8.01972276,20.0071031 8.01972276,19.6698041 L8.01972276,14.5613251 C8.01972276,14.4512595 8.0464695,13.9981044 8.45367453,13.5661889 C8.94786065,13.0420318 9.78576622,12.776255 10.9441342,12.776255 C12.0850538,12.776255 12.913856,13.0456735 13.4075219,13.5770461 C13.8242205,14.0255417 13.8510756,14.4977875 13.8502693,14.6230531 L13.8502693,19.6501931 C13.8502693,19.9874922 13.5882466,20.2609143 13.2650316,20.2609143 C12.9418165,20.2609143 12.6798112,19.9874922 12.6798112,19.6501931 L12.6798112,14.6302461 C12.6759314,14.6038494 12.6514605,14.4921779 12.5060441,14.3691967 C12.3419873,14.2304499 11.9208887,13.9976973 10.9441125,13.9976973 C9.81112577,13.9976973 9.40849413,14.295028 9.28798208,14.4228271 C9.22880979,14.4855956 9.20397044,14.5389998 9.19354485,14.5727252 C9.19226723,14.5768203 9.19113217,14.5809623 9.1901419,14.5851432 L9.1901419,19.6698041 C9.19016357,20.0071031 8.92815823,20.2805252 8.60494317,20.2805252 Z M8.75666698,15.4128287 L8.56159351,20.072405 L3.40298401,19.7783541 L3.0345119,14.0330513 L3.14288605,10.2782471 L1.60397313,9.7580031 L10.9024751,0.959094433 L20.0709281,9.30561705 L19.1389105,10.2330084 L18.7487635,18.6021504 L18.3802914,19.8914506 L13.5251295,20.072405 L13.4384302,16.702129 L13.1349826,14.4401987 L12.5280874,13.9199548 L11.3359717,13.716381 L9.8620833,13.8520968 L8.95174044,13.9878127 L8.75666698,15.4128287 Z" id="形状"></path>
            </g>
        </g>
    </g>
</svg>