<?xml version="1.0" encoding="UTF-8"?>
<svg width="12px" height="9px" viewBox="0 0 12 9" version="1.1" xmlns="http://www.w3.org/2000/svg" xmlns:xlink="http://www.w3.org/1999/xlink">
    <title>阴天</title>
    <g id="页面-1" stroke="none" stroke-width="1" fill="none" fill-rule="evenodd">
        <g id="图标" transform="translate(-50.000000, -723.000000)" fill="#FFFFFF" fill-rule="nonzero">
            <g id="阴天" transform="translate(50.000000, 723.000000)">
                <path d="M12,6.66666667 C12,7.28550515 11.7671059,7.87899761 11.3525518,8.31658249 C10.9379977,8.75416737 10.3757417,9 9.78947369,9 L2.52631579,9 C2.44989473,9 2.37473684,8.996 2.30021052,8.988 C1.0111579,8.867 0,7.72566667 0,6.33333334 C0,5.08966667 0.807789478,4.048 1.89884211,3.753 C1.89821053,3.724 1.89473685,3.69566667 1.89473685,3.66666667 C1.89473685,1.64166667 3.45,0 5.36842106,0 C6.87631579,0 8.15621053,1.01633333 8.63652632,2.43366667 C8.80366645,2.36924954 8.97997189,2.33532092 9.15789474,2.33333333 C10.0299233,2.33333333 10.7368421,3.07952542 10.7368421,4 C10.7368421,4.182 10.702421,4.35366666 10.6512632,4.51733333 C11.4689206,4.88291639 12,5.72934973 12,6.66666667 Z" id="路径"></path>
            </g>
        </g>
    </g>
</svg>