<?xml version="1.0" encoding="UTF-8"?>
<svg width="10px" height="10px" viewBox="0 0 10 10" version="1.1" xmlns="http://www.w3.org/2000/svg" xmlns:xlink="http://www.w3.org/1999/xlink">
    <title>小雨</title>
    <g id="页面-1" stroke="none" stroke-width="1" fill="none" fill-rule="evenodd">
        <g id="图标" transform="translate(-92.000000, -723.000000)" fill="#FFFFFF" fill-rule="nonzero">
            <g id="小雨" transform="translate(92.000000, 723.000000)">
                <path d="M2.94372295,7.03786192 C2.7922078,6.94877505 2.59740261,6.99331849 2.51082252,7.1492205 L2.14285714,7.81737194 C2.05627705,7.97327394 2.0995671,8.17371937 2.25108225,8.26280623 C2.29437229,8.28507795 2.35930737,8.30734967 2.40259741,8.30734967 C2.51082252,8.30734967 2.61904763,8.24053454 2.68398269,8.15144767 L3.05194805,7.48329622 C3.13852814,7.32739421 3.09523809,7.12694878 2.94372295,7.03786192 L2.94372295,7.03786192 Z M2.01298701,8.73051224 C1.86147186,8.64142538 1.66666667,8.68596882 1.58008658,8.84187082 L1.21212121,9.51002228 C1.12554111,9.66592428 1.16883117,9.86636971 1.32034632,9.95545657 C1.36363636,9.97772829 1.42857143,10 1.47186147,10 C1.58008658,10 1.68831169,9.93318486 1.75324675,9.844098 L2.12121212,9.17594654 C2.20779222,9.02004454 2.16450216,8.81959911 2.01298701,8.73051224 L2.01298701,8.73051224 Z M5.23809524,7.03786192 C5.08658009,6.94877505 4.8917749,6.99331849 4.80519481,7.1492205 L4.43722944,7.81737194 C4.35064934,7.97327394 4.3939394,8.17371937 4.54545455,8.26280623 C4.58874459,8.28507795 4.65367966,8.30734967 4.6969697,8.30734967 C4.80519481,8.30734967 4.91341992,8.24053454 4.97835498,8.15144767 L5.34632034,7.48329622 C5.43290043,7.32739421 5.38961038,7.12694878 5.23809524,7.03786192 Z M4.30735931,8.73051224 C4.15584415,8.64142538 3.96103896,8.68596882 3.87445887,8.84187082 L3.50649351,9.51002228 C3.41991342,9.66592428 3.46320347,9.86636971 3.61471861,9.95545657 C3.65800865,9.97772829 3.72294372,10 3.76623376,10 C3.87445887,10 3.98268398,9.93318486 4.04761904,9.844098 L4.41558442,9.17594654 C4.50216451,9.02004454 4.45887446,8.81959911 4.30735931,8.73051224 L4.30735931,8.73051224 Z M7.53246754,7.03786192 C7.38095239,6.94877505 7.1861472,6.99331849 7.0995671,7.1492205 L6.73160173,7.81737194 C6.64502164,7.97327394 6.68831169,8.17371937 6.83982684,8.26280623 C6.88311688,8.28507795 6.94805195,8.30734967 6.99134199,8.30734967 C7.0995671,8.30734967 7.20779222,8.24053454 7.27272727,8.15144767 L7.64069263,7.48329622 C7.74891775,7.32739421 7.68398267,7.12694878 7.53246754,7.03786192 Z M6.6017316,8.73051224 C6.45021645,8.64142538 6.25541126,8.68596882 6.16883117,8.84187082 L5.80086581,9.51002228 C5.71428571,9.66592428 5.75757577,9.86636971 5.9090909,9.95545657 C5.95238094,9.97772829 6.01731602,10 6.06060605,10 C6.16883117,10 6.27705628,9.93318486 6.34199134,9.844098 L6.70995671,9.17594654 C6.81818182,9.02004454 6.75324675,8.81959911 6.6017316,8.73051224 Z M7.46753246,6.61469933 L2.14285714,6.61469933 C1.6017316,6.61469933 1.06060605,6.39198218 0.670995675,6.01336303 C0.238095243,5.59020045 0,5.01113586 0,4.40979955 C0,3.42984409 0.627705622,2.56124721 1.53679654,2.29398664 C1.96969697,0.935412036 3.20346321,0 4.61038961,0 C5.67099566,0 6.64502164,0.534521163 7.25108225,1.42538976 C7.33766235,1.42538976 7.40259741,1.40311805 7.46753246,1.40311805 C8.87445887,1.40311805 10,2.58351894 10,4.00890868 C10,5.05567928 9.3939394,5.9910913 8.46320346,6.4142539 C8.16017316,6.54788419 7.8138528,6.61469933 7.46753246,6.61469933 Z" id="形状"></path>
            </g>
        </g>
    </g>
</svg>