<?xml version="1.0" encoding="UTF-8"?>
<svg width="12px" height="12px" viewBox="0 0 12 12" version="1.1" xmlns="http://www.w3.org/2000/svg" xmlns:xlink="http://www.w3.org/1999/xlink">
    <title>晴天</title>
    <g id="页面-1" stroke="none" stroke-width="1" fill="none" fill-rule="evenodd">
        <g id="图标" transform="translate(-25.000000, -722.000000)" fill="#FF8025" fill-rule="nonzero">
            <g id="晴天" transform="translate(25.000000, 722.000000)">
                <path d="M2.30528782,5.775 C2.30528782,7.68141792 3.8507449,9.226875 5.75716282,9.226875 C7.66358074,9.226875 9.20903782,7.68141792 9.20903782,5.775 C9.20903782,3.86858208 7.66358074,2.323125 5.75716282,2.323125 C3.8507449,2.323125 2.30528782,3.86858208 2.30528782,5.775 Z" id="路径"></path>
                <path d="M5.87966282,0 L5.87966282,0 C6.17132948,0 6.31716282,0.145833333 6.31716282,0.4375 L6.31716282,1.264375 C6.31716282,1.55604167 6.17132948,1.701875 5.87966282,1.701875 L5.87966282,1.701875 C5.58799615,1.701875 5.44216282,1.55604167 5.44216282,1.264375 L5.44216282,0.4375 C5.44216282,0.145833333 5.58799615,0 5.87966282,0 L5.87966282,0 Z" id="路径"></path>
                <path d="M9.8633795,1.71022686 L9.8633795,1.71022686 C10.072833,1.91320142 10.0760725,2.11941546 9.8730979,2.32886896 L9.29766501,2.92266965 C9.09469045,3.13212316 8.88847641,3.13536263 8.67902291,2.93238806 L8.67902291,2.93238806 C8.4695694,2.7294135 8.46632993,2.52319946 8.6693045,2.31374596 L9.24473739,1.71994527 C9.44771196,1.51049176 9.65392599,1.50725229 9.8633795,1.71022686 L9.8633795,1.71022686 Z" id="路径"></path>
                <path d="M11.5352873,5.71508722 L11.5352873,5.71508722 C11.5443979,6.00661156 11.403191,6.15692903 11.1116667,6.16603962 L10.2851952,6.19186814 C9.99367082,6.20097873 9.84335335,6.05977186 9.83424276,5.76824752 L9.83424276,5.76824752 C9.82513217,5.47672317 9.96633905,5.32640571 10.2578634,5.31729512 L11.0843349,5.29146659 C11.3758592,5.282356 11.5261767,5.42356288 11.5352873,5.71508722 L11.5352873,5.71508722 Z" id="路径"></path>
                <path d="M9.94607501,9.74570393 L9.94607501,9.74570393 C9.74974204,9.9613954 9.54372983,9.97107465 9.32803835,9.77474169 L8.71655302,9.21813773 C8.50086155,9.02180476 8.49118229,8.81579255 8.68751526,8.60010108 L8.68751526,8.60010108 C8.88384822,8.38440961 9.08986044,8.37473036 9.30555192,8.57106332 L9.91703725,9.12766727 C10.1327287,9.32400023 10.142408,9.53001245 9.94607501,9.74570393 Z" id="路径"></path>
                <path d="M6.00559093,11.5446102 L6.00559093,11.5446102 C5.71449661,11.5628733 5.5598179,11.4264577 5.54155481,11.1353633 L5.48977892,10.3101109 C5.47151582,10.0190166 5.60793144,9.8643379 5.89902576,9.84607481 L5.89902576,9.84607481 C6.19012009,9.82781171 6.3447988,9.96422732 6.36306189,10.2553216 L6.41483777,11.080574 C6.43310087,11.3716684 6.29668526,11.5263471 6.00559093,11.5446102 Z" id="路径"></path>
                <path d="M1.91724494,10.0854556 L1.91724494,10.0854556 C1.69549293,9.89599456 1.67934745,9.69038803 1.86880851,9.46863601 L2.40593059,8.83996906 C2.59539164,8.61821705 2.80099817,8.60207157 3.02275018,8.79153263 L3.02275018,8.79153263 C3.24450219,8.98099368 3.26064767,9.18660021 3.07118662,9.40835223 L2.53406454,10.0370192 C2.34460349,10.2587712 2.13899695,10.2749167 1.91724494,10.0854556 Z" id="路径"></path>
                <path d="M0.00353061906,6.19857175 L0.00353061906,6.19857175 C-0.0238162755,5.90818995 0.107701174,5.7493256 0.398082967,5.72197871 L1.22131538,5.64445025 C1.51169718,5.61710335 1.67056154,5.74862081 1.69790844,6.03900261 L1.69790844,6.03900261 C1.72525534,6.32938441 1.59373788,6.48824876 1.30335608,6.51559565 L0.480123664,6.59312411 C0.189741862,6.62047101 0.0308775136,6.48895355 0.00353061906,6.19857175 Z" id="路径"></path>
                <path d="M1.33043707,2.06713408 L1.33043707,2.06713408 C1.51287895,1.83957222 1.71788083,1.81701224 1.9454427,1.99945412 L2.59058058,2.51667687 C2.81814244,2.69911876 2.84070243,2.90412063 2.65826055,3.13168249 L2.65826055,3.13168249 C2.47581866,3.35924435 2.27081679,3.38180434 2.04325493,3.19936247 L1.39811704,2.68213971 C1.17055517,2.49969783 1.14799519,2.29469595 1.33043707,2.06713408 Z" id="路径"></path>
            </g>
        </g>
    </g>
</svg>