<?xml version="1.0" encoding="UTF-8"?>
<svg width="13px" height="10px" viewBox="0 0 13 10" version="1.1" xmlns="http://www.w3.org/2000/svg" xmlns:xlink="http://www.w3.org/1999/xlink">
    <title>编组 3</title>
    <g id="页面-1" stroke="none" stroke-width="1" fill="none" fill-rule="evenodd">
        <g id="图标" transform="translate(-70.000000, -722.000000)" fill-rule="nonzero">
            <g id="编组-3" transform="translate(70.000000, 722.000000)">
                <g id="多云" transform="translate(0.000000, 3.131313)" fill="#FFFFFF">
                    <path d="M8.87788945,2.74621212 C10.0537688,2.74621212 11.0075377,3.69318182 11.0075377,4.82323232 C11.0075377,5.88383838 10.1582915,6.76767677 9.08693467,6.86868687 L2.05778894,6.86868687 C0.855778894,6.70454545 0,5.68813131 0,4.48863636 C0,3.36489899 0.803517588,2.42424242 1.8879397,2.17171717 C2.24070352,0.940656566 3.44271357,0 4.82763819,0 C6.5,0 7.81306533,1.3510101 7.81306533,2.94823232 C7.81306533,2.98611111 7.80653266,3.01767677 7.80653266,3.06186869 C8.1201005,2.88510101 8.48592965,2.74621212 8.87788945,2.74621212 Z" id="形状"></path>
                </g>
                <path d="M12.5361809,3.56691919 L11.9221106,3.56691919 C11.6673367,3.56691919 11.4582915,3.76262626 11.4582915,4.01515152 C11.4582915,4.26767677 11.6673367,4.46338384 11.9221106,4.46338384 L12.5361809,4.46338384 C12.7909548,4.46338384 13,4.26767677 13,4.01515152 C13,3.76262626 12.7909548,3.56691919 12.5361809,3.56691919 Z" id="路径" fill="#FF9D00"></path>
                <path d="M6.32361809,2.22853535 C6.5,2.3989899 6.80050251,2.3989899 6.97688442,2.22853535 C7.15326633,2.05808081 7.15326633,1.7739899 6.97688442,1.59722222 L6.53919598,1.18055556 C6.36281407,1.01010101 6.06231156,1.01010101 5.88592965,1.18055556 C5.70954774,1.3510101 5.70954774,1.63510101 5.88592965,1.80555556 L6.32361809,2.22853535 L6.32361809,2.22853535 Z" id="路径" fill="#FF9D00"></path>
                <path d="M11.7849246,1.18686869 C11.6085427,1.01641414 11.3080402,1.01641414 11.1316583,1.18686869 L10.6939698,1.60353535 C10.5175879,1.7739899 10.5175879,2.05808081 10.6939698,2.23484848 C10.8703518,2.3989899 11.1643216,2.3989899 11.3472362,2.22853535 L11.7849246,1.81186869 C11.9613065,1.63510101 11.9613065,1.35732323 11.7849246,1.18686869 Z" id="路径" fill="#FF9D00"></path>
                <path d="M8.8321608,1.48989899 C9.08693467,1.48989899 9.2959799,1.29419192 9.2959799,1.04166667 L9.2959799,0.448232323 C9.2959799,0.202020202 9.08693467,2.7864421e-14 8.8321608,2.7864421e-14 C8.57738693,2.7864421e-14 8.36834171,0.195707071 8.36834171,0.448232323 L8.36834171,1.04166667 C8.36834171,1.29419192 8.57738693,1.48989899 8.8321608,1.48989899 Z" id="路径" fill="#FF9D00"></path>
                <path d="M8.87788945,5.11994949 C9.43316583,5.11994949 9.94924623,5.27146465 10.3934673,5.53661616 C10.8572864,5.12626263 11.1512563,4.54545455 11.1512563,3.88257576 C11.1512563,2.65151515 10.1190955,1.66035354 8.85175879,1.66035354 C7.94371859,1.66035354 7.15326633,2.17171717 6.78743719,2.91666667 C7.61055276,3.40909091 8.23115578,4.21085859 8.47939698,5.15151515 C8.61658291,5.13257576 8.74723618,5.11994949 8.87788945,5.11994949 Z" id="路径" fill="#FF9D00"></path>
            </g>
        </g>
    </g>
</svg>