<?xml version="1.0" encoding="UTF-8"?>
<svg width="94px" height="102px" viewBox="0 0 94 102" version="1.1" xmlns="http://www.w3.org/2000/svg"
>
    <title>城管2</title>
    <defs>
        <linearGradient x1="50%" y1="0%" x2="50%" y2="97.4677666%" id="linearGradient-1">
            <stop stop-color="#F6FBFF" offset="0%"></stop>
            <stop stop-color="#79C2FF" offset="100%"></stop>
        </linearGradient>
    </defs>
    <g id="页面-1" stroke="none" stroke-width="1" fill="none" fill-rule="evenodd" opacity="0.7">
        <g id="图标" transform="translate(-1083.000000, -323.000000)" fill="url(#linearGradient-1)" fill-rule="nonzero">
            <path d="M1142.47493,382.594243 C1151.25819,382.952206 1162.28535,384.550252 1166.70904,386.966498 C1170.29479,388.922507 1171.78685,399.607204 1174.50039,415.88011 L1174.69401,417.038026 C1175.11809,419.566777 1175.57257,422.224513 1176.0693,425 L1083.0693,424.987216 C1083.6976,415.910313 1084.967,403.637317 1087.76226,392.387071 C1088.33926,389.485019 1090.41647,387.043204 1090.48058,386.953714 C1090.72658,385.376975 1108.44869,385.240713 1111.50993,385.228938 L1111.80782,385.228032 C1111.83241,385.22798 1111.85409,385.227941 1111.87277,385.227911 L1111.9579,385.227824 L1111.9579,385.227824 L1115.47121,384.89543 C1114.97114,387.989248 1114.58647,392.70668 1115.93281,396.746541 C1117.66382,402.052055 1120.43343,407.319216 1124.19036,410.451386 L1124.98534,396.350226 L1132.2171,396.350226 L1133.46087,409.569265 C1136.08943,405.823444 1139.15396,399.917065 1139.47451,392.399855 C1139.73096,386.519045 1141.20552,383.834327 1142.47493,382.594243 Z M1128.61404,384.217858 L1134.05069,390.27765 L1131.33237,394.317511 L1126.79328,394.317511 L1123.16457,391.287615 L1128.61404,384.217858 Z M1098.63555,336.353176 C1098.52015,330.523503 1113.09908,322.55884 1126.85739,323.019077 C1140.62852,323.46653 1153.24564,329.96099 1155.41261,334.294892 C1157.5924,338.616009 1150.70683,343.410148 1147.60384,344.637448 C1147.60384,344.637448 1148.34753,346.580672 1148.07827,348.459974 C1148.25778,349.329312 1148.41164,350.300924 1148.48858,351.515439 C1148.69373,354.839375 1150.38628,377.851242 1129.13976,380.050154 C1129.13976,380.050154 1104.62356,379.577132 1106.75206,351.617714 C1106.12376,350.773945 1105.79038,350.17308 1105.79038,350.17308 C1105.79038,350.17308 1105.59805,345.800825 1105.9699,344.675801 C1105.9699,344.675801 1098.75095,342.170064 1098.63555,336.353176 Z M1144.11618,340.252409 L1108.91902,340.252409 L1108.91902,344.394545 L1144.11618,344.394545 L1144.11618,340.252409 Z M1127.98575,327.276273 C1125.40847,327.276273 1123.33126,329.193928 1123.33126,331.546252 C1123.33126,331.738018 1123.35691,331.929784 1123.38255,332.108765 C1121.08736,331.916999 1119.17684,332.159902 1119.17684,332.147118 C1122.4503,333.499253 1124.06089,334.521925 1124.31963,334.69187 L1124.35291,334.713974 L1124.35291,334.713974 C1125.40847,335.598898 1126.71635,335.803448 1127.74213,335.803448 C1127.83188,335.803448 1127.90882,335.829017 1127.98575,335.829017 C1128.40889,335.829017 1128.8192,335.765095 1129.20387,335.66282 C1129.40902,335.637251 1129.53725,335.598898 1129.53725,335.598898 C1129.57571,335.586113 1129.60136,335.560545 1129.627,335.54776 C1130.02449,335.407132 1130.3707,335.240935 1130.70408,335.023601 C1131.37796,334.699375 1132.20747,334.305921 1133.03458,333.915814 L1133.48455,333.703798 C1135.20123,332.895684 1136.78184,332.159902 1136.78184,332.159902 C1135.42267,332.185471 1133.92247,332.30053 1132.53766,332.428374 C1132.60177,332.134333 1132.64024,331.840293 1132.64024,331.546252 C1132.64024,329.193928 1130.56303,327.276273 1127.98575,327.276273 Z"
                  id="城管2"></path>
        </g>
    </g>
</svg>