<?xml version="1.0" encoding="UTF-8"?>
<svg width="113px" height="112px" viewBox="0 0 113 112" version="1.1" xmlns="http://www.w3.org/2000/svg"
>
    <title>管理2</title>
    <defs>
        <linearGradient x1="50%" y1="0%" x2="50%" y2="97.4677666%" id="linearGradient-1">
            <stop stop-color="#F6FBFF" offset="0%"></stop>
            <stop stop-color="#79C2FF" offset="100%"></stop>
        </linearGradient>
    </defs>
    <g id="页面-1" stroke="none" stroke-width="1" fill="none" fill-rule="evenodd" opacity="0.7">
        <g id="图标" transform="translate(-1621.000000, -335.000000)" fill="url(#linearGradient-1)" fill-rule="nonzero">
            <path d="M1654.15201,419.1319 L1654.15201,442.319241 C1654.15201,444.903128 1652.36138,447 1650.16721,447 L1650.16721,447 L1624.97219,447 C1623.91294,447 1622.90413,446.512985 1622.16013,445.633651 C1621.41613,444.767846 1621,443.577364 1621,442.33277 L1621,442.33277 L1621,419.1319 L1654.15201,419.1319 Z M1693.98739,419.1319 L1693.98739,442.319241 C1693.98739,444.903128 1692.19675,447 1690.00259,447 L1690.00259,447 L1664.80757,447 C1663.74832,447 1662.73951,446.512985 1661.99551,445.633651 C1661.25151,444.767846 1660.83538,443.577364 1660.83538,442.33277 L1660.83538,442.33277 L1660.83538,419.1319 L1693.98739,419.1319 Z M1733.99987,419.1319 L1733.99987,442.319241 C1733.99987,444.903128 1732.21745,447 1730.03336,447 L1730.03336,447 L1704.95396,447 C1703.89957,447 1702.89539,446.512985 1702.15481,445.633651 C1701.41422,444.767846 1701,443.577364 1701,442.33277 L1701,442.33277 L1701,419.1319 L1733.99987,419.1319 Z M1650.17982,335 C1652.37399,335 1654.16462,337.096872 1654.15208,339.680759 L1654.15208,339.680759 L1654.15208,411.326126 L1621,411.326126 L1621,339.66723 C1621,337.096872 1622.79064,335 1624.9848,335 L1624.9848,335 Z M1690.0152,335 C1692.20936,335 1694,337.096872 1694,339.680759 L1694,339.680759 L1694,411.326126 L1660.83538,411.326126 L1660.83538,339.66723 C1660.83538,337.096872 1662.62601,335 1664.82018,335 L1664.82018,335 Z M1730.04591,335 C1732.24255,335 1734.01242,337.096872 1733.99993,339.680759 L1733.99993,339.680759 L1733.99993,411.326126 L1701,411.326126 L1701,339.66723 C1701,337.096872 1702.78242,335 1704.96651,335 L1704.96651,335 Z M1637.51926,356.225752 C1633.79927,356.225752 1630.79807,359.445464 1630.79807,363.436285 C1630.79807,367.427105 1633.81188,370.646817 1637.51926,370.646817 C1641.22664,370.646817 1644.24046,367.427105 1644.24046,363.436285 C1644.24046,359.445464 1641.23925,356.225752 1637.51926,356.225752 Z M1677.35464,356.23928 C1673.64726,356.23928 1670.63344,359.445464 1670.63344,363.436285 C1670.63344,367.427105 1673.64726,370.646817 1677.35464,370.646817 C1681.06201,370.646817 1684.07583,367.440633 1684.07583,363.449813 C1684.07583,359.458993 1681.06201,356.23928 1677.35464,356.23928 Z M1717.44345,356.225752 C1713.74053,356.225752 1710.7531,359.445464 1710.7531,363.436285 C1710.7531,367.427105 1713.75309,370.646817 1717.44345,370.646817 C1721.13381,370.646817 1724.1338,367.427105 1724.1338,363.436285 C1724.1338,359.445464 1721.14636,356.225752 1717.44345,356.225752 Z"
                  id="管理2"></path>
        </g>
    </g>
</svg>