<?xml version="1.0" encoding="UTF-8"?>
<svg width="113px" height="112px" viewBox="0 0 113 112" version="1.1" xmlns="http://www.w3.org/2000/svg"
>
    <title>管理1</title>
    <defs>
        <linearGradient x1="50%" y1="0%" x2="50%" y2="97.4677666%" id="linearGradient-1">
            <stop stop-color="#F6FBFF" offset="0%"></stop>
            <stop stop-color="#79C2FF" offset="100%"></stop>
        </linearGradient>
    </defs>
    <g id="页面-1" stroke="none" stroke-width="1" fill="none" fill-rule="evenodd">
        <g id="图标" transform="translate(-1621.000000, -127.000000)" fill="url(#linearGradient-1)" fill-rule="nonzero">
            <path d="M1654.15201,211.1319 L1654.15201,234.319241 C1654.15201,236.903128 1652.36138,239 1650.16721,239 L1650.16721,239 L1624.97219,239 C1623.91294,239 1622.90413,238.512985 1622.16013,237.633651 C1621.41613,236.767846 1621,235.577364 1621,234.33277 L1621,234.33277 L1621,211.1319 L1654.15201,211.1319 Z M1693.98739,211.1319 L1693.98739,234.319241 C1693.98739,236.903128 1692.19675,239 1690.00259,239 L1690.00259,239 L1664.80757,239 C1663.74832,239 1662.73951,238.512985 1661.99551,237.633651 C1661.25151,236.767846 1660.83538,235.577364 1660.83538,234.33277 L1660.83538,234.33277 L1660.83538,211.1319 L1693.98739,211.1319 Z M1733.99987,211.1319 L1733.99987,234.319241 C1733.99987,236.903128 1732.21745,239 1730.03336,239 L1730.03336,239 L1704.95396,239 C1703.89957,239 1702.89539,238.512985 1702.15481,237.633651 C1701.41422,236.767846 1701,235.577364 1701,234.33277 L1701,234.33277 L1701,211.1319 L1733.99987,211.1319 Z M1650.17982,127 C1652.37399,127 1654.16462,129.096872 1654.15208,131.680759 L1654.15208,131.680759 L1654.15208,203.326126 L1621,203.326126 L1621,131.66723 C1621,129.096872 1622.79064,127 1624.9848,127 L1624.9848,127 Z M1690.0152,127 C1692.20936,127 1694,129.096872 1694,131.680759 L1694,131.680759 L1694,203.326126 L1660.83538,203.326126 L1660.83538,131.66723 C1660.83538,129.096872 1662.62601,127 1664.82018,127 L1664.82018,127 Z M1730.04591,127 C1732.24255,127 1734.01242,129.096872 1733.99993,131.680759 L1733.99993,131.680759 L1733.99993,203.326126 L1701,203.326126 L1701,131.66723 C1701,129.096872 1702.78242,127 1704.96651,127 L1704.96651,127 Z M1637.51926,148.225752 C1633.79927,148.225752 1630.79807,151.445464 1630.79807,155.436285 C1630.79807,159.427105 1633.81188,162.646817 1637.51926,162.646817 C1641.22664,162.646817 1644.24046,159.427105 1644.24046,155.436285 C1644.24046,151.445464 1641.23925,148.225752 1637.51926,148.225752 Z M1677.35464,148.23928 C1673.64726,148.23928 1670.63344,151.445464 1670.63344,155.436285 C1670.63344,159.427105 1673.64726,162.646817 1677.35464,162.646817 C1681.06201,162.646817 1684.07583,159.440633 1684.07583,155.449813 C1684.07583,151.458993 1681.06201,148.23928 1677.35464,148.23928 Z M1717.44345,148.225752 C1713.74053,148.225752 1710.7531,151.445464 1710.7531,155.436285 C1710.7531,159.427105 1713.75309,162.646817 1717.44345,162.646817 C1721.13381,162.646817 1724.1338,159.427105 1724.1338,155.436285 C1724.1338,151.445464 1721.14636,148.225752 1717.44345,148.225752 Z"
                  id="管理1"></path>
        </g>
    </g>
</svg>