<?xml version="1.0" encoding="UTF-8"?>
<svg width="99px" height="116px" viewBox="0 0 99 116" version="1.1" xmlns="http://www.w3.org/2000/svg"
>
    <title>环保1</title>
    <defs>
        <linearGradient x1="50%" y1="0%" x2="50%" y2="97.4677666%" id="linearGradient-1">
            <stop stop-color="#F6FBFF" offset="0%"></stop>
            <stop stop-color="#79C2FF" offset="100%"></stop>
        </linearGradient>
    </defs>
    <g id="页面-1" stroke="none" stroke-width="1" fill="none" fill-rule="evenodd">
        <g id="图标" transform="translate(-926.000000, -147.000000)" fill="url(#linearGradient-1)" fill-rule="nonzero">
            <path d="M991.592701,252.82 C982.116701,250.452 932.012701,235.444 928.100701,181.904 C928.100701,181.904 919.236701,214.132 938.540701,244.116 C952.548701,265.896 973.152701,264.96 984.732701,259.804 C1009.3647,261.936 1024.3047,252.82 1024.3047,252.82 C1013.2327,256.836 994.576701,253.412 991.592701,252.82 M936.568701,147 C932.860701,162.956 932.608701,176.492 934.640701,187.936 C936.784701,178.86 940.756701,174.744 940.756701,174.744 C936.796701,185.416 937.804701,196.96 938.372701,201.284 C940.624701,207.116 943.488701,212.296 946.784701,216.836 C946.772701,200.456 953.140701,190.98 953.140701,190.98 C949.796701,206.42 954.024701,222.288 955.320701,226.54 C959.416701,230.46 963.752701,233.72 968.008701,236.424 C963.844701,216.94 969.468701,204.2 969.468701,204.2 C968.844701,220.768 975.660701,236.516 978.364701,242.104 C988.700701,246.956 996.724701,248.524 996.724701,248.524 C996.724701,248.524 1009.8047,211.212 974.160701,185.72 C947.700701,166.78 936.568701,147 936.568701,147"
                  id="环保1"></path>
        </g>
    </g>
</svg>