<?xml version="1.0" encoding="UTF-8"?>
<svg width="115px" height="115px" viewBox="0 0 115 115" version="1.1" xmlns="http://www.w3.org/2000/svg"
>
    <title>监控1</title>
    <defs>
        <linearGradient x1="50%" y1="0%" x2="50%" y2="97.4677666%" id="linearGradient-1">
            <stop stop-color="#F6FBFF" offset="0%"></stop>
            <stop stop-color="#79C2FF" offset="100%"></stop>
        </linearGradient>
    </defs>
    <g id="页面-1" stroke="none" stroke-width="1" fill="none" fill-rule="evenodd">
        <g id="图标" transform="translate(-1251.000000, -137.000000)" fill="url(#linearGradient-1)" fill-rule="nonzero">
            <path d="M1251.09375,194.70575 L1269.46575,196.42775 L1269.46575,218.23775 L1298.66175,211.08575 L1298.66175,203.17175 L1295.10975,203.17175 L1295.10975,193.18175 L1278.35175,190.51775 L1268.81175,181.55975 L1271.84775,162.71975 L1328.63175,171.73775 C1329.02775,170.32175 1329.52575,169.01375 1330.09575,167.86775 L1266.57375,157.77575 L1276.89975,139.72775 L1283.85375,137.09375 L1343.24175,146.53175 L1348.85775,147.41975 L1355.24175,148.43975 L1365.09375,149.99975 L1364.73375,158.98175 L1353.75375,170.95775 L1348.79775,170.26775 L1351.19775,155.39975 L1360.47975,156.86975 L1360.61175,153.64775 L1347.13575,151.50575 L1346.36175,151.80575 L1336.88775,163.03175 C1339.85775,164.22575 1341.38175,170.02775 1340.31975,176.60975 C1339.17975,183.67175 1335.49575,188.95775 1332.09375,188.41775 C1330.47375,188.15975 1329.21375,186.62975 1328.45175,184.33775 L1327.55175,189.92975 L1336.94175,199.82975 L1312.34175,195.91775 L1312.34175,203.17175 L1308.99375,203.17175 L1308.99375,217.41575 L1269.46575,227.09375 L1269.46575,248.07575 L1251.09375,251.09375 L1251.09375,194.70575 L1251.09375,194.70575 Z M1335.04575,170.09375 C1333.57575,169.85975 1331.98575,172.15175 1331.48775,175.20575 C1330.98975,178.26575 1331.78775,180.93575 1333.26375,181.16975 C1334.73375,181.40375 1336.32975,179.11175 1336.82175,176.05775 C1337.31975,172.99775 1336.52175,170.32775 1335.04575,170.09375 Z M1334.58975,197.34575 L1337.85375,200.30975 L1348.89375,193.51175 L1352.16975,173.23775 L1347.88575,172.55975 L1344.92175,190.90775 L1334.58975,197.34575 L1334.58975,197.34575 Z"
                  id="监控1"></path>
        </g>
    </g>
</svg>