<?xml version="1.0" encoding="UTF-8"?>
<svg width="92px" height="92px" viewBox="0 0 92 92" version="1.1" xmlns="http://www.w3.org/2000/svg"
>
    <title>看板1</title>
    <defs>
        <linearGradient x1="50%" y1="0%" x2="50%" y2="97.4677666%" id="linearGradient-1">
            <stop stop-color="#F6FBFF" offset="0%"></stop>
            <stop stop-color="#79C2FF" offset="100%"></stop>
        </linearGradient>
    </defs>
    <g id="页面-1" stroke="none" stroke-width="1" fill="none" fill-rule="evenodd">
        <g id="图标" transform="translate(-737.000000, -159.000000)" fill="url(#linearGradient-1)" fill-rule="nonzero">
            <path d="M822.366659,242.636675 L743.63334,242.636675 C742.279457,242.636675 741.181714,243.734405 741.181714,245.088271 L741.181714,248.548405 C741.181714,249.902271 742.279457,251 743.63334,251 L822.366659,251 C823.720542,251 824.818285,249.902271 824.818285,248.548405 L824.818285,245.088271 C824.818285,243.734405 823.720542,242.636675 822.366659,242.636675 Z M822.722282,159 L743.277717,159 C739.810679,159 737,161.810644 737,165.277639 L737,227.995712 C737,231.462707 739.810679,234.273351 743.277717,234.273351 L822.722282,234.273351 C826.18932,234.273351 829,231.462707 829,227.995712 L829,165.278782 C829.001143,161.810644 826.190464,159 822.722282,159 Z M762.090285,217.545558 C762.090285,219.855364 760.218405,221.727221 757.908571,221.727221 C755.598737,221.727221 753.726857,219.85422 753.726857,217.545558 L753.726857,200.818909 C753.726857,198.509104 755.598737,196.637247 757.908571,196.637247 C760.218405,196.637247 762.090285,198.509104 762.090285,200.818909 L762.090285,217.545558 Z M778.818285,217.545558 C778.818285,219.855364 776.946405,221.727221 774.636571,221.727221 C772.326737,221.727221 770.454857,219.85422 770.454857,217.545558 L770.454857,175.727792 C770.454857,173.417987 772.326737,171.54613 774.636571,171.54613 C776.946405,171.54613 778.818285,173.417987 778.818285,175.727792 L778.818285,217.545558 Z M795.545142,217.545558 C795.545142,219.855364 793.673262,221.727221 791.363428,221.727221 C789.053594,221.727221 787.181714,219.85422 787.181714,217.545558 L787.181714,209.182234 C787.181714,206.872429 789.053594,205.000572 791.363428,205.000572 C793.673262,205.000572 795.545142,206.872429 795.545142,209.182234 L795.545142,217.545558 Z M812.273143,217.545558 C812.273143,219.855364 810.401262,221.727221 808.091428,221.727221 C805.781594,221.727221 803.909714,219.85422 803.909714,217.545558 L803.909714,184.091117 C803.909714,181.781312 805.781594,179.909455 808.091428,179.909455 C810.401262,179.909455 812.273143,181.781312 812.273143,184.091117 L812.273143,217.545558 L812.273143,217.545558 Z"
                  id="看板1"></path>
        </g>
    </g>
</svg>