<?xml version="1.0" encoding="UTF-8"?>
<svg width="92px" height="92px" viewBox="0 0 92 92" version="1.1" xmlns="http://www.w3.org/2000/svg"
>
    <title>看板2</title>
    <defs>
        <linearGradient x1="50%" y1="0%" x2="50%" y2="97.4677666%" id="linearGradient-1">
            <stop stop-color="#F6FBFF" offset="0%"></stop>
            <stop stop-color="#79C2FF" offset="100%"></stop>
        </linearGradient>
    </defs>
    <g id="页面-1" stroke="none" stroke-width="1" fill="none" fill-rule="evenodd" opacity="0.7">
        <g id="图标" transform="translate(-737.000000, -341.000000)" fill="url(#linearGradient-1)" fill-rule="nonzero">
            <path d="M822.366659,424.636675 L743.63334,424.636675 C742.279457,424.636675 741.181714,425.734405 741.181714,427.088271 L741.181714,430.548405 C741.181714,431.902271 742.279457,433 743.63334,433 L822.366659,433 C823.720542,433 824.818285,431.902271 824.818285,430.548405 L824.818285,427.088271 C824.818285,425.734405 823.720542,424.636675 822.366659,424.636675 Z M822.722282,341 L743.277717,341 C739.810679,341 737,343.810644 737,347.277639 L737,409.995712 C737,413.462707 739.810679,416.273351 743.277717,416.273351 L822.722282,416.273351 C826.18932,416.273351 829,413.462707 829,409.995712 L829,347.278782 C829.001143,343.810644 826.190464,341 822.722282,341 Z M762.090285,399.545558 C762.090285,401.855364 760.218405,403.727221 757.908571,403.727221 C755.598737,403.727221 753.726857,401.85422 753.726857,399.545558 L753.726857,382.818909 C753.726857,380.509104 755.598737,378.637247 757.908571,378.637247 C760.218405,378.637247 762.090285,380.509104 762.090285,382.818909 L762.090285,399.545558 Z M778.818285,399.545558 C778.818285,401.855364 776.946405,403.727221 774.636571,403.727221 C772.326737,403.727221 770.454857,401.85422 770.454857,399.545558 L770.454857,357.727792 C770.454857,355.417987 772.326737,353.54613 774.636571,353.54613 C776.946405,353.54613 778.818285,355.417987 778.818285,357.727792 L778.818285,399.545558 Z M795.545142,399.545558 C795.545142,401.855364 793.673262,403.727221 791.363428,403.727221 C789.053594,403.727221 787.181714,401.85422 787.181714,399.545558 L787.181714,391.182234 C787.181714,388.872429 789.053594,387.000572 791.363428,387.000572 C793.673262,387.000572 795.545142,388.872429 795.545142,391.182234 L795.545142,399.545558 Z M812.273143,399.545558 C812.273143,401.855364 810.401262,403.727221 808.091428,403.727221 C805.781594,403.727221 803.909714,401.85422 803.909714,399.545558 L803.909714,366.091117 C803.909714,363.781312 805.781594,361.909455 808.091428,361.909455 C810.401262,361.909455 812.273143,363.781312 812.273143,366.091117 L812.273143,399.545558 L812.273143,399.545558 Z"
                  id="看板2"></path>
        </g>
    </g>
</svg>