<?xml version="1.0" encoding="UTF-8"?>
<svg width="88px" height="115px" viewBox="0 0 88 115" version="1.1" xmlns="http://www.w3.org/2000/svg"
>
    <title>报表2</title>
    <defs>
        <linearGradient x1="50%" y1="0%" x2="50%" y2="97.4677666%" id="linearGradient-1">
            <stop stop-color="#F6FBFF" offset="0%"></stop>
            <stop stop-color="#79C2FF" offset="100%"></stop>
        </linearGradient>
    </defs>
    <g id="页面-1" stroke="none" stroke-width="1" fill="none" fill-rule="evenodd" opacity="0.7">
        <g id="图标" transform="translate(-1424.000000, -302.000000)" fill="url(#linearGradient-1)" fill-rule="nonzero">
            <path d="M1427.18713,308.391984 L1433.38539,308.391984 C1435.14539,308.391984 1436.57252,309.821794 1436.57252,311.585098 L1436.57252,314.778211 C1436.57252,318.304818 1439.42678,321.16827 1442.94678,321.168271 L1493.05322,321.168271 C1496.57322,321.168271 1499.42748,318.308652 1499.42748,314.778211 L1499.42748,311.585098 C1499.42748,309.821794 1500.85461,308.391984 1502.61843,308.391984 L1508.81287,308.391984 C1510.57287,308.391984 1512,309.821794 1512,311.585098 L1512,413.806887 C1512,415.570191 1510.57287,417 1508.81287,417 L1427.18713,417 C1425.42693,417 1424,415.570394 1424,413.806887 L1424,311.585098 C1424,309.821794 1425.42713,308.391984 1427.18713,308.391984 Z M1439.76348,340.334616 C1438.00222,340.334616 1436.57443,341.76508 1436.57443,343.529646 C1436.57443,345.294213 1438.00222,346.724676 1439.76348,346.724676 L1496.24417,346.724676 C1498.00543,346.724676 1499.43322,345.294213 1499.43322,343.529646 C1499.43322,341.76508 1498.00543,340.334616 1496.24417,340.334616 L1439.75965,340.334616 L1439.76348,340.334616 Z M1439.76348,359.500962 C1438.00222,359.500962 1436.57443,360.931426 1436.57443,362.695992 C1436.57443,364.460558 1438.00222,365.891022 1439.76348,365.891022 L1496.24417,365.891022 C1498.00543,365.891022 1499.43322,364.460558 1499.43322,362.695992 C1499.43322,360.931426 1498.00543,359.500962 1496.24417,359.500962 L1439.75965,359.500962 L1439.76348,359.500962 Z M1439.76348,378.667308 C1438.00222,378.667308 1436.57443,380.097772 1436.57443,381.862338 C1436.57443,383.626904 1438.00222,385.057368 1439.76348,385.057368 L1477.38539,385.057368 C1479.14665,385.057368 1480.57443,383.626904 1480.57443,381.862338 C1480.57443,380.097772 1479.14665,378.667308 1477.38539,378.667308 L1439.76348,378.667308 Z M1449.23304,302.001925 L1486.76696,302.001925 C1489.08218,301.9451 1491.24623,303.150093 1492.42052,305.149964 C1493.59482,307.149836 1493.59482,309.6303 1492.42052,311.630171 C1491.24623,313.630043 1489.08218,314.835035 1486.76696,314.778211 L1449.23304,314.778211 C1446.91782,314.835035 1444.75377,313.630043 1443.57948,311.630171 C1442.40518,309.6303 1442.40518,307.149836 1443.57948,305.149964 C1444.75377,303.150093 1446.91782,301.9451 1449.23304,302.001925 Z"
                  id="报表2"></path>
        </g>
    </g>
</svg>